<?xml version="1.0" encoding="UTF-8"?> <!-- Generator: Adobe Illustrator 24.0.0, SVG Export Plug-In . SVG Version: 6.00 Build 0) --> <svg xmlns="http://www.w3.org/2000/svg" xmlns:xlink="http://www.w3.org/1999/xlink" id="Calque_1" x="0px" y="0px" viewBox="0 0 274 150" style="enable-background:new 0 0 274 150;" xml:space="preserve"> <style type="text/css"> .st0{fill:#B3B3B3;} </style> <g> <g> <path class="st0" d="M127.8,90.6c-0.8-0.8-1.8-1.2-2.9-1.2h-24.1l0,0l0,0h0.1c-1,0-1.8-0.3-2.4-0.9c-0.6-0.6-0.9-1.3-0.9-2.2V70.9 h27.3c0.9,0,1.9-0.1,2.9-1c0.8-0.8,1.2-1.8,1.2-2.9c0-1.2-0.4-2.2-1.2-2.9c-0.9-0.9-1.8-1.2-2.9-1.2H97.5v-4.2v-1.4 c0-1.1-0.4-2.1-1.2-2.9S94.5,53,93.3,53c-1.2,0-2.2,0.4-2.9,1.2c-0.9,0.9-1.2,1.8-1.2,2.9v32.6c0,5.2,2.5,7.8,7.7,7.8H125 c1.1,0,2.1-0.4,2.9-1.2s1.2-1.8,1.2-2.9C129.1,92.4,128.7,91.5,127.8,90.6L127.8,90.6z"></path> <path class="st0" d="M150.8,62.7c-1,0-2,0.1-2.9,0.9c-0.8,0.8-1.2,1.8-1.2,2.9c0,1.2,0.4,2.2,1.2,2.9c0.9,0.9,1.8,1.2,2.9,1.2h0.6 c0,0,0.1,0,0.2,0h14.9c1,0,1.7,0.3,2.3,0.9c0.6,0.6,0.9,1.3,0.9,2.2l0.1,12.4c0,0.9-0.3,1.7-0.9,2.2c-0.6,0.6-1.4,0.9-2.4,0.9 h-19.9c-1,0-1.8-0.3-2.4-0.9c-0.6-0.6-0.9-1.3-0.9-2.2L143.1,57c0-1.1-0.4-2.1-1.2-2.9c-0.8-0.8-1.8-1.2-2.9-1.2s-2.2,0.4-2.9,1.2 c-0.9,0.9-1.2,1.8-1.2,2.9v32.6c0,5.2,2.7,7.8,7.9,7.8h27.4c5.2,0,7.9-2.7,7.9-7.8V70.2c0-5.1-2.5-7.5-7.8-7.6L150.8,62.7 L150.8,62.7z"></path> <path class="st0" d="M225.4,69.9c0.8-0.8,1.2-1.8,1.2-2.9c0-1.2-0.4-2.2-1.2-2.9c-0.9-0.9-1.9-1.3-2.9-1.3h-30.7 c-5.1,0.1-7.6,2.7-7.6,7.6c0,0.1-0.1,10.8-0.1,12.4v11.1c0,1.1,0.4,2.1,1.2,2.9c0.8,0.8,1.8,1.2,2.9,1.2c1.2,0,2.2-0.4,2.9-1.2 c0.9-0.9,1.3-1.8,1.3-2.9v-7.3v-7.9V73c0-1.4,0.6-2,1.9-2h28.3C223.6,70.9,224.6,70.8,225.4,69.9L225.4,69.9z"></path> <path class="st0" d="M82.5,64c-0.8-0.8-1.7-1.2-2.9-1.2H57c-0.4,0-0.7,0-0.9,0c-0.6,0-0.9-0.2-1.3-0.7c-0.8-1.1-2.4-1.5-3.7-1.5 c-1.2,0-2.4,0.5-3.2,1.4c-0.8,0.9-0.9,1.8-0.9,2.9v4.9c0,0.2,0,0.4,0,0.6v23.1c0,1.1,0.4,2.1,1.2,2.9c0.9,0.9,1.8,1.2,2.9,1.2 c1.2,0,2.2-0.4,2.9-1.2s1.2-1.8,1.2-2.9V74.1c0-1,0.3-1.8,0.9-2.4c0.6-0.6,1.4-0.9,2.4-0.9h21.1c1.2,0,2.2-0.4,2.9-1.1 c0.8-0.8,1.2-1.8,1.2-2.9C83.8,65.8,83.4,64.8,82.5,64L82.5,64z"></path> <path class="st0" d="M216.5,82.3L216.5,82.3L216.5,82.3c0-1.2-0.5-2.3-1.4-3.2c-0.9-0.8-2-1.2-3.3-1.2h-8c-1.3,0-2.4,0.4-3.3,1.2 c-0.9,0.9-1.4,1.9-1.4,3.2l0,0l0,0c0,1.2,0.5,2.3,1.4,3.2c0.9,0.8,2,1.2,3.3,1.2h8c1.3,0,2.4-0.4,3.3-1.2 C216.1,84.6,216.5,83.5,216.5,82.3L216.5,82.3L216.5,82.3z"></path> </g> </g> </svg> 