<?xml version="1.0" encoding="UTF-8"?> <svg xmlns="http://www.w3.org/2000/svg" width="274" height="150" viewBox="0 0 274 150"><g id="logo_province_liege" transform="translate(-1270 -5224)"><rect id="Rectangle_90" data-name="Rectangle 90" width="274" height="150" transform="translate(1270 5224)" fill="none"></rect><g id="logo_province_liege-2" data-name="logo_province_liege" transform="translate(1299 5257.856)"><g id="Groupe_27" data-name="Groupe 27" transform="translate(3 1.144)"><path id="Tracé_107" data-name="Tracé 107" d="M103.077,29.717V39.9c0,.85,1.416,1.162,2.663,1.371V29.756a2.339,2.339,0,0,1-2.663-.04Zm1.358-.415A1.636,1.636,0,0,0,106,27.6c0-.939-.7-2.76-1.565-2.76s-1.566,1.822-1.566,2.76A1.636,1.636,0,0,0,104.436,29.3ZM98.483,48.577v5.129h4.966a29.272,29.272,0,0,0,7.221-.949V46.509h1.241a7.859,7.859,0,0,0-5.8-5h-3.129a7.815,7.815,0,0,0-5.751,4.9h8.107S98.749,46.91,98.483,48.577Zm17.523,6.781H92.963v4.724H112.2C116.747,60.082,116.006,55.358,116.006,55.358Zm2.313,5.892H89.472a2.487,2.487,0,0,0,1.568,2.107V84.515s.224,6.018-3.935,9.836a52.9,52.9,0,0,0,8.425-3.577V69.022a3.357,3.357,0,1,1,6.713,0v17.3a43.987,43.987,0,0,0,4.68-4.352V69.022a3.359,3.359,0,1,1,6.718,0v3.615A56.069,56.069,0,0,0,118.319,61.25Z" transform="translate(-49.872 -14.352)" fill="#d9d9d9"></path><path id="Tracé_108" data-name="Tracé 108" d="M3,1.144V33.119c0,10.46,5.247,38.433,34.1,48.025-4.273-3.839-3.935-9.836-3.935-9.836V57.148c-5.457,3.237-5.378,13.294-5.378,13.294C15.916,47.931,33.68,43.192,39.859,39.591c6.429-3.747,4.346-9.608,4.346-9.608.009,4.5-3.319,7.093-9.835,7.531a10.656,10.656,0,0,0-9,5.647s-4.842-2.7-4.112-7.835c.365.179,7.443,2.8,9.474-4.211,0,0-4.4-3.785-7.449-3.217a3.571,3.571,0,0,0-3.219,3.012s-6.448-2.388-1.888-6.977a3.887,3.887,0,0,1-3.891.356s1.881-3.063,10.6-7.914a.892.892,0,0,1-.082-.539s.6-4.951,12.161-6.91c9.745-1.652,20.384,2.624,22.162-7.782ZM26.6,17.926s3.6.715,5.176-.306-1.89-1.524-3.349-1.686Z" transform="translate(-3 -1.144)" fill="#b3b3b3"></path></g><g id="Groupe_28" data-name="Groupe 28" transform="translate(87.934 6.718)"><path id="Tracé_109" data-name="Tracé 109" d="M258.163,94.251a2.394,2.394,0,1,0,2.394,2.394A2.395,2.395,0,0,0,258.163,94.251Zm-52.033,8.012a10.292,10.292,0,0,0-2.881-.355c-4.978,0-8.391,3.734-8.391,9.992,0,6.08,3.27,9.708,8.925,9.708a13.688,13.688,0,0,0,6.685-1.387V94.849H206.13Zm0,16.145a4.174,4.174,0,0,1-2.24.426c-3.342,0-4.73-2.845-4.73-7.183,0-4.054,1.28-7.29,5.05-7.29a6.776,6.776,0,0,1,1.92.249Zm49.853,2.845h4.338V102.085h-4.338Zm18.924-21.194-2.189-4.494a2.382,2.382,0,0,0-4.221-.071l4.026,4.565Zm38.339,18.527c-3.165,0-4.976-1.778-5.331-5.334,4.951,0,10.056-.587,11.838-1.707.178-6.437-2.6-9.815-7.681-9.815-5.013,0-8.179,3.628-8.179,9.886,0,6.472,3.449,9.992,8.89,9.992a13.081,13.081,0,0,0,6.33-1.351l-1.031-2.739A10.454,10.454,0,0,1,313.245,118.586ZM311.93,104.4c2.382,0,3.769,1.636,3.769,5.513a24.955,24.955,0,0,1-7.886,1.137C307.706,106.46,309.4,104.4,311.93,104.4Zm-88.985-2.667c-5.014,0-8.178,3.628-8.178,9.886,0,6.472,3.448,9.992,8.889,9.992a13.085,13.085,0,0,0,6.33-1.351l-1.031-2.739a10.455,10.455,0,0,1-4.837,1.067c-3.163,0-4.975-1.778-5.33-5.334,4.951,0,10.057-.587,11.839-1.707C230.8,105.108,228.029,101.73,222.944,101.73Zm-4.259,9.317c-.108-4.587,1.592-6.65,4.117-6.65,2.382,0,3.769,1.636,3.769,5.513A24.959,24.959,0,0,1,218.686,111.047Zm54.372-9.317c-5.014,0-8.179,3.628-8.179,9.886,0,6.472,3.449,9.992,8.89,9.992a13.081,13.081,0,0,0,6.329-1.351l-1.031-2.739a10.454,10.454,0,0,1-4.836,1.067c-3.164,0-4.975-1.778-5.331-5.334,4.951,0,10.058-.587,11.839-1.707C280.916,105.108,278.142,101.73,273.057,101.73Zm-4.259,9.317c-.107-4.587,1.592-6.65,4.116-6.65,2.383,0,3.77,1.636,3.77,5.513A24.961,24.961,0,0,1,268.8,111.047Zm15.679,1.047c0,5.8,3.129,9.352,7.717,9.352a7.473,7.473,0,0,0,3.591-.711v2.679c0,4.018-4.944,6.2-7,6.916l.993,2.638c4.243-.787,10.208-4.554,10.208-10.015V103.132a12.087,12.087,0,0,0-6.223-1.387C287.571,101.745,284.477,105.87,284.477,112.093Zm11.308,6.223a4.893,4.893,0,0,1-2.453.6c-3.2,0-4.551-2.383-4.551-7.041,0-4.8,1.387-7.574,4.765-7.574a4.573,4.573,0,0,1,2.24.427ZM245.166,112.9V94.849h-4.551v16.724c0,6.472,3.9,9.679,9.339,9.679h1.969V118.23H250.71C247.546,118.23,245.166,116.488,245.166,112.9Z" transform="translate(-194.858 -58.607)" fill="#b3b3b3"></path><path id="Tracé_110" data-name="Tracé 110" d="M234.592,20.887c-5.147,0-7.637,4.057-7.637,9.545,0,5.42,2.49,9.511,7.637,9.511s7.636-4.091,7.636-9.511C242.229,24.943,239.774,20.887,234.592,20.887Zm0,16.227c-2.863,0-3.511-3.239-3.511-6.716,0-3.511.58-6.887,3.511-6.887,2.966,0,3.511,3.375,3.511,6.887C238.1,33.874,237.559,37.114,234.592,37.114Zm18.615-4.023a15.857,15.857,0,0,0-.478,2.523h-.068a13.26,13.26,0,0,0-.443-2.523L248.98,21.227h-4.432l6,18.374H254.5l5.9-18.374h-3.885ZM203.592,15.808a14.458,14.458,0,0,0-6.478,1.329V39.6h4.227V30.329l.921.069c6.988.511,9.886-3.034,9.886-7.3C212.148,18.943,209.625,15.808,203.592,15.808Zm-1.363,12.033-.888-.068v-9.1a5.852,5.852,0,0,1,2.182-.375c3.2,0,4.466,1.6,4.466,4.773C207.989,26.306,206.456,28.182,202.228,27.841Zm13.883-5.624V39.6h4.158V24.091a5.025,5.025,0,0,1,3.887-.137l.818-3.034C220.339,20.784,218.02,21.3,216.111,22.216Zm64.18-1.33a16.885,16.885,0,0,0-7.193,1.33V39.6h4.16V24.023a6.931,6.931,0,0,1,2.862-.511c2.625,0,3.306,1.568,3.306,3.068V39.6h4.159V26.512C287.585,23.545,285.778,20.887,280.291,20.887Zm19.678,16.056c-2.557,0-3.955-2.591-3.955-6.648,0-4.022,1.194-6.579,4.024-6.579a3.736,3.736,0,0,1,2.453.784l.886-2.352a6.446,6.446,0,0,0-4.26-1.261c-4.092,0-7.3,3.375-7.3,9.476,0,6.068,3.068,9.58,7.26,9.58a6.317,6.317,0,0,0,4.33-1.262l-.954-2.557A3.742,3.742,0,0,1,299.968,36.943ZM263.885,39.6h4.159V21.227h-4.159Zm2.073-25.868a2.278,2.278,0,1,0,2.279,2.278A2.278,2.278,0,0,0,265.957,13.734Zm48.814,23.311c-3.034,0-4.771-1.7-5.111-5.114,4.747,0,9.642-.563,11.35-1.636.17-6.17-2.489-9.409-7.364-9.409-4.807,0-7.841,3.477-7.841,9.477,0,6.2,3.307,9.579,8.523,9.579a12.547,12.547,0,0,0,6.069-1.3l-.988-2.625A10.033,10.033,0,0,1,314.771,37.045Zm-1.262-13.6c2.284,0,3.614,1.569,3.614,5.285a23.928,23.928,0,0,1-7.561,1.09C309.461,25.421,311.089,23.444,313.51,23.444Z" transform="translate(-196.115 -13.734)" fill="#b3b3b3"></path></g></g></g></svg> 