<?xml version="1.0" encoding="UTF-8"?> <!-- Generator: Adobe Illustrator 24.0.0, SVG Export Plug-In . SVG Version: 6.00 Build 0) --> <svg xmlns="http://www.w3.org/2000/svg" xmlns:xlink="http://www.w3.org/1999/xlink" id="Calque_1" x="0px" y="0px" viewBox="0 0 274 150" style="enable-background:new 0 0 274 150;" xml:space="preserve"> <style type="text/css"> .st0{fill:#B3B3B3;} </style> <g> <path class="st0" d="M75.5,55.4H50.9c-4,0-7.3,3.3-7.3,7.3v24.6c0,4,3.3,7.3,7.3,7.3h31.9v-7.3V62.7C82.7,58.6,79.5,55.4,75.5,55.4 z M71,83.2H55.4c-1.8,0-2.8-1.4-2.8-2.8c0-1.3,1-2.8,2.8-2.8H71c1.8,0,2.8,1.4,2.8,2.8C73.7,81.8,72.8,83.2,71,83.2z M71,72.3H55.4 c-1.8,0-2.8-1.4-2.8-2.8c0-1.3,1-2.8,2.8-2.8H71c1.8,0,2.8,1.4,2.8,2.8C73.7,70.9,72.8,72.3,71,72.3z"></path> <g> <g> <path class="st0" d="M106.3,94.6h-9.7c-1.5,0-2.7-1.3-2.7-2.7V58.1c0-1.5,1.3-2.7,2.7-2.7h9.7c6,0,10.8,4.9,10.8,10.8 c0,3.1-1.3,6-3.5,8c2.7,2.2,4.3,5.5,4.3,8.9C117.9,89.4,112.7,94.6,106.3,94.6z M99.3,89.1h7c3.4,0,6.1-2.7,6.1-6.1 s-2.8-6.1-6.1-6.1h-7V89.1z M99.3,71.6h7c2.9,0,5.3-2.4,5.3-5.4v-0.7c-0.4-2.6-2.6-4.7-5.3-4.7h-7V71.6z"></path> </g> <g> <path class="st0" d="M132,95.1c-5.9,0-10.9-4.8-10.9-10.5V76c0-5.8,4.7-10.5,10.5-10.5c5.8,0,10.5,4.7,10.5,10.5v3.3 c0,1.5-1.3,2.7-2.7,2.7h-12.8v2.7c0,2.6,2.6,5,5.5,5c1.8,0,3.2-0.5,4.3-1.6c0.5-0.8,1.3-1.2,2.2-1.2c1.5,0,2.8,1.3,2.8,2.7 c0,0.5-0.1,1-0.5,1.6l0,0c0,0-0.2,0.4-0.7,0.8C138.1,93.9,135.2,95.1,132,95.1z M126.5,76.5h10v-0.6c0-2.8-2.2-5-5-5s-5,2.2-5,5 V76.5z"></path> </g> <g> <path class="st0" d="M148.9,94.6c-1.3,0-2.7-0.9-2.7-2.7V58.1c0-1.8,1.3-2.7,2.7-2.7s2.7,0.9,2.7,2.7v33.7 C151.6,93.7,150.2,94.6,148.9,94.6z"></path> </g> <g> <path class="st0" d="M162.2,94.6c-1.3,0-2.7-0.9-2.7-2.7V71.4h-2.1c-1.8,0-2.7-1.3-2.7-2.7c0-1.3,0.9-2.7,2.7-2.7h2.1V63 c0-4.5,3.7-7.9,8.4-7.9c4.2,0,6.1,1.9,6.1,4c0,1.5-1,2.5-2.3,2.5c-0.6,0-1.1-0.1-1.6-0.4c-0.3-0.1-1.1-0.6-2.1-0.6 c-2.2,0-3,1.3-3,2.5V66h5.7c1.8,0,2.7,1.3,2.7,2.7c0,1.3-0.9,2.7-2.7,2.7H165v20.5C164.9,93.7,163.5,94.6,162.2,94.6z"></path> </g> <g> <path class="st0" d="M179.5,94.6c-1.3,0-2.7-0.9-2.7-2.7V68.7c0-1.8,1.3-2.7,2.7-2.7s2.7,1,2.7,2.7v23.2 C182.2,93.7,180.8,94.6,179.5,94.6z M179.5,62.8c-1.3,0-2.7-0.9-2.7-2.7v-1.9c0-1.8,1.3-2.7,2.7-2.7s2.7,0.9,2.7,2.7v1.9 C182.2,61.9,180.8,62.8,179.5,62.8z"></path> </g> <g> <path class="st0" d="M197.6,95.1c-5.8,0-10.5-4.7-10.5-10.5V68.7c0-1.8,1.3-2.7,2.7-2.7c1.3,0,2.7,1,2.7,2.7v15.9 c0,2.8,2.2,5,5,5s5-2.2,5-5V68.7c0-1.8,1.3-2.7,2.7-2.7s2.7,1,2.7,2.7v15.9C208.1,90.4,203.4,95.1,197.6,95.1z"></path> </g> <g> <path class="st0" d="M220.4,95.1c-2.8,0-6.6-1.3-8.2-3.8c-0.4-0.5-0.5-1-0.5-1.6c0-1.4,1.3-2.7,2.8-2.7c0.8,0,1.6,0.4,2.2,1.2 l0.1,0.1c0.8,0.9,2.2,1.3,3.7,1.3c3,0,4.6-1.6,4.6-3.3c0-2.3-2.4-3.2-5.2-4.3c-3.6-1.4-8-3.1-8-8.5c0-5.2,4.5-8,8.9-8 c3.2,0,6.6,1.8,8.2,4.3c0.3,0.4,0.4,1,0.4,1.5c0,1.5-1.3,2.7-2.8,2.7c-0.9,0-1.7-0.4-2.2-1.3c-1.1-1.3-2.2-1.8-3.7-1.8 c-2.1,0-3.4,1-3.4,2.5c0,1.7,2.2,2.6,4.6,3.6c3.8,1.5,8.5,3.4,8.5,9.3C230.5,92,225.3,95.1,220.4,95.1z"></path> </g> </g> </g> </svg> 