<?xml version="1.0" encoding="UTF-8"?> <svg xmlns="http://www.w3.org/2000/svg" width="274" height="150" viewBox="0 0 274 150"><g id="logo_total" transform="translate(-972 -5224)"><rect id="Rectangle_89" data-name="Rectangle 89" width="274" height="150" transform="translate(972 5224)" fill="none"></rect><g id="logo_total-2" data-name="logo_total" transform="translate(1841.366 11274.84)"><g id="Groupe_34" data-name="Groupe 34" transform="translate(-792.366 -6035.84)"><g id="Groupe_33" data-name="Groupe 33"><g id="Groupe_32" data-name="Groupe 32"><path id="Tracé_126" data-name="Tracé 126" d="M-696.248-5959.111c-.059-.171-.13-.342-.193-.517-5.924,6.775-20.486,11.148-33.588,10.184-7.722-.574-22.01-4.569-29.215-8.984a65.373,65.373,0,0,0,26.621,15.834c12,3.567,24.79,3.325,32-.427,5.282-3.576,6.48-9.94,4.372-16.09" transform="translate(779.117 6005.356)" fill="#b3b3b3"></path><path id="Tracé_127" data-name="Tracé 127" d="M-714.653-6032.184c23.632,13.959,9.575,57.828-9.22,71.917-17.477,13.108-36.075,7.069-40.111-5.016,3.514,5.233,10.513,7.143,16.721,5.057,17.253-6.918,26.146-38.187,27.3-49.046.773-9.345-.457-15.628-3.7-19.595-3.718-3.928-9.421-5.828-17.747-3.215,5.729-4.709,18-5.27,26.758-.1" transform="translate(781.013 6035.84)" fill="#ebebeb"></path><path id="Tracé_128" data-name="Tracé 128" d="M-706.795-5969.964c.094-.06.189-.122.284-.186a.38.38,0,0,0,.051-.034,11.268,11.268,0,0,0,1.408-1.074c.212-.195.417-.4.63-.609,9.181-9.323,11.132-35.244-11.5-47.543-8.065-4.373-26.788-10.494-45.47-1.045-6.181,3.124-12.563,9.614-15.988,18.422,2.527-4.184,6.91-7.016,15.554-8.241,8.613-1.084,20.488.257,32.1,4.356a63.44,63.44,0,0,1,18.3,10.038c3.91,3.357,6.429,6.545,7.726,9.931.063.175.13.346.193.517,2.108,6.15.91,12.513-4.372,16.09-.008,0,.008-.01,0,0,.244-.138.488-.271.749-.42a1.178,1.178,0,0,0,.106-.068l.225-.133" transform="translate(786.373 6031.678)" fill="#b3b3b3"></path><path id="Tracé_129" data-name="Tracé 129" d="M-774.072-5973.454a25.557,25.557,0,0,0,2.059,2.593c4.531-10.667,29.393-17.608,36.72-17.514-16.465-5.3-32.613-2.773-39.1,2.854-2.363,2.626-3.1,6.567.32,12.066" transform="translate(785.98 6018.019)" fill="#b3b3b3"></path><path id="Tracé_130" data-name="Tracé 130" d="M-727.308-5945.413c-13.24-.744-32.516-5.85-46.168-21.32-.075-.083-.164-.184-.256-.286a26.193,26.193,0,0,1-2.057-2.6c-3.418-5.5-2.683-9.438-.32-12.065l0,0a11.266,11.266,0,0,0-1.543,1.634c-3.507,4.531-3.924,11.863-1.531,19.637,5.2,16.889,27.958,27.042,46.434,24.252,11.81-1.779,19.194-8.426,22.271-11.135a47.644,47.644,0,0,1-16.828,1.876" transform="translate(787.697 6014.176)" fill="#b3b3b3"></path><path id="Tracé_131" data-name="Tracé 131" d="M-751.585-5860.346c-6.262,0-9.857,2.684-9.857,7.354s3.6,7.349,9.857,7.349,9.849-2.682,9.849-7.349-3.589-7.354-9.849-7.354m0,11.306c-3.43,0-5.16-1.331-5.16-3.952s1.73-3.955,5.16-3.955,5.16,1.332,5.16,3.955S-748.163-5849.04-751.585-5849.04Z" transform="translate(779.996 5965.644)" fill="#b3b3b3"></path><path id="Tracé_132" data-name="Tracé 132" d="M-726.47-5859.78v3.158h5.928c0,.307,0,9.735,0,9.735,0,.934,1.411,1.27,2.617,1.27s2.617-.332,2.617-1.266v-9.739h5.94v-3.158h-17.1" transform="translate(766.008 5965.416)" fill="#b3b3b3"></path><path id="Tracé_133" data-name="Tracé 133" d="M-651.234-5849.16a4.79,4.79,0,0,1-2.984-.691,2.784,2.784,0,0,1-.808-2.17l0-6.875c0-.9-1.344-1.225-2.495-1.225s-2.515.324-2.515,1.222v6.658c0,2.545.812,4.33,2.436,5.3,2.007,1.161,5.649,1.123,9.169,1.084l4.367-.02.008-.64v-2.64h-7.182" transform="translate(739.433 5965.553)" fill="#b3b3b3"></path><path id="Tracé_134" data-name="Tracé 134" d="M-785.229-5852.885c0,2.486,2.1,4.163,5.625,4.461v-14.98h7.959v-3.453h-20.721v3.453h7.137v10.519" transform="translate(792.366 5968.248)" fill="#b3b3b3"></path><path id="Tracé_135" data-name="Tracé 135" d="M-677.711-5845.857l-.119-.567c-1.166-5.767-7.718-12.338-9.062-13.308a2.5,2.5,0,0,0-1.518-.387,2.533,2.533,0,0,0-1.529.387c-1.344.97-7.892,7.542-9.059,13.308l-.118.567h4.628l.091-.406a13.39,13.39,0,0,1,.891-2.61h10.186a13.955,13.955,0,0,1,.894,2.61l.083.406h4.632m-14.164-5.977a26.222,26.222,0,0,1,3.465-4.205,25.7,25.7,0,0,1,3.453,4.205Z" transform="translate(755.066 5965.552)" fill="#b3b3b3"></path></g></g></g></g></g></svg> 