<?xml version="1.0" encoding="UTF-8"?> <svg xmlns="http://www.w3.org/2000/svg" width="274" height="150" viewBox="0 0 274 150"><g id="logo_ethias" transform="translate(-1568 -5224)"><rect id="Rectangle_91" data-name="Rectangle 91" width="274" height="150" transform="translate(1568 5224)" fill="none"></rect><g id="logo_ethias-2" data-name="logo_ethias" transform="translate(1624.857 5250.63)"><g id="Groupe_30" data-name="Groupe 30" transform="translate(2.143 1.37)"><path id="Tracé_111" data-name="Tracé 111" d="M175.071,208.889l.112-.131a.255.255,0,0,1,.14.04l-.159-.157Z" transform="translate(-118.187 -140.46)" fill="#b3b3b3"></path><path id="Tracé_112" data-name="Tracé 112" d="M174.068,219.27l0-.011c-.1.05-.067.041,0,.011" transform="translate(-117.47 -147.585)" fill="#b3b3b3"></path><path id="Tracé_113" data-name="Tracé 113" d="M182.657,147.685l-.174.2.029.02a.249.249,0,0,0,.145-.215" transform="translate(-123.161 -99.555)" fill="#b3b3b3"></path><path id="Tracé_114" data-name="Tracé 114" d="M225.245,298.643l-.007.081c.035-.024.054-.045.007-.081" transform="translate(-151.852 -200.856)" fill="#b3b3b3"></path><path id="Tracé_115" data-name="Tracé 115" d="M225.1,298.931l.043.028,0-.067a.442.442,0,0,0-.045.04" transform="translate(-151.759 -201.022)" fill="#b3b3b3"></path><path id="Tracé_116" data-name="Tracé 116" d="M196.341,54.1a4.018,4.018,0,0,0,.223-1.748l-.132.014a1.659,1.659,0,0,1-.041-.759c-.383-.431.048-.667-.4-1.02.131-.076.169-.26.293-.274.078-.425-.678-.683-.335-1.03-.083-.105-.6-.571-.754-.2l-.266-.5c-.15-.159-.323.045-.371.164-.23-1.158-1.384.056-2.067-.1-.807-.132-1.456.421-2.328.348-2.927.314-4.05,3.238-5.387,4.592.067.526-.119.609-.542.9.078.112-.139.435.187.39-.937.419-.84,1.587-1.308,2.062a.139.139,0,0,1-.145-.095c-3.114,4.358-5.146,9.3-7.88,13.553-.2.434-.352.819-.728.981.269.5-.266.919-.552,1.256-.1.721-.906,1.125-1.2,1.866-.084.849-.569,1.146-1.323,1.955-.3-.738.209-1.4-.065-2.015l.357-.222c-.085-.64.493-1.244-.221-1.637.064,0,.15.11.214.1.367-.221-.164-.693.314-.636-.393-.421.262-.978.211-1.39.889-.7-.254-1.336.445-2.072l-.322.1c.05-.124-.029-.233-.11-.339.4.007.472-.414.633-.675-.362-.248.248-.623-.171-.807.066,0,.045-.124.176-.142-.343-.607.671-1.382.1-1.734l.281-.329-.207-.1c-.114-.336.428-.231.467-.467-.568-.287.154-.8-.274-1.035l.338-.4a.576.576,0,0,0-.226-.747l.233-.212c.2.511.545.119.593-.007-.145-.1-.476-.591-.031-.711a3.062,3.062,0,0,1,.2-1.449c.05-.124.407-.4.078-.424-.355-.188.157-.312.2-.437l-.159-.219c.233-.209,0-.474.393-.516-.105-.29-.414-.6-.128-.937.139.093.164.271.355.19a2.729,2.729,0,0,1,.169-1.684l.084.105-.278-.552c.128-.013-.1-.233.1-.307.25-.1.4.062.671.091l-.22-.148c.105-.19.069-.488.256-.569l-.313.154c-.312-.373.349-.34.3-.74.076.046.152.158.276.084.259-.038.07-.429-.069-.526l.188-.086-.159-.159.117-.132c.035-.243.035-.243-.123-.4l.361-.279c-.069.009-.25.088-.332-.02-.017-.117.1-.249.154-.317.188-.08.212.093.364.194.069-.429-.5-.709-.019-1.064l.083.1-.1-.216c.488-.3.024-1.306.441-1.656l.071.045a1.252,1.252,0,0,0,.5,1.306c-.623-.7-.245-1.339-.469-2.015l.212.086c.124-.548.278-1.34.4-1.946.074.05.138.043.148.1l.247-.093.25.385c-.081-.1.035-.238.083-.363-.1-.226-.493-.236-.614-.162l.376-.637c-.009-.061-.186-.4.075-.426l.07.047c-.172-.333.086-.84.048-1.128l.075.048c.1-.188.284-.8-.1-.7l.754-.747c-.062.007-.286-.206-.113-.343.136-.012.15.1.288.138l.1-.188c-.489-.706.744-.862.08-1.37l.882-.823-.243-.321c.224-.271.316-.1.621-.255l-.2-.045c-.266-.493.329-.034.346-.393l-.287-.143c.213-.379-.155-1.168.418-1.3a.586.586,0,0,0-.189-.45,1.647,1.647,0,0,0,.859-1.946c.806-.391-.15-1.1.6-1.494.053-.538.335-.93.191-1.506a12.027,12.027,0,0,0,.923-3.381c.908-1.6.954-3.2,1.51-4.987.536-.425-.262-.975.126-1.5-.161-.69.6-1.5.74-2.347s.842-2.123.1-2.681c-.022.3-.569.187-.326.516-.576.13-.333.988-.866.938a4.418,4.418,0,0,1,.719-2.52c.466-1.421,1.171-3.052,1.068-4.34.124-.021.209.092.338.073l-.592-.458c.437-.174-.16-.693.351-.817.272-2.881,1.918-5.394,2.791-8.236.121-.547-.283-.618-.479-1.064l-.468-.061c-1.473.361-2.967-.931-4.166.462-2.056,4.292-3.585,8.158-5.139,12.324-.524.48.062,1.473-.769,1.637.393.428-.619.792.007,1.009-.213.379-.283.866-.664.966-.057.069-.241.154.024.18-.09.309.167.756-.352.817l.149.155-.109.137c.454.415-.778.631-.485.828.057.409-.545.842-.117,1.085a1.792,1.792,0,0,1-.555.776c-.59.552.214,1.1.191,1.877-.216-.089-.361-.667-.7-.269-.407.411-.033.719.09,1.12l-.5.174c.347.14.252.445.229.746l-.336-.016c.4.538-.483.826-.216,1.329.131-.017.2-.024.269.022l-.568.2.335.549c-.465-.059-.44.652-.609.848l-.145-.1c-.379.58.335,1.021-.464,1.42l.073.054c-.709.619-.071,1.43-.668,1.921l.116-.135.248.38c-.5-.233-.328.516-.523.541l.123-.071.16.219c-.16.252-.485-.18-.5.176l.135-.015c.206.569-.585,1.083-.611,1.378l.159.215c-.119.552.48.119.44.3-.048.133-.095.254-.236.212.1.222.207.567-.028.773-.176-.34-.188.085-.448.117-.609-.108.212-.383-.136-.517-.5.178-.119,1.079-.488,1.249l.566-.193c.343.078.057.409.078.583-.2-.033-.226-.209-.113-.336l-.255.031c-.226.323.707.38.364.782-.285-.206-.211.383-.578.133.048-.124-.087-.226.033-.3.079.1.2.029.269.023l-.157-.157-.124.074c-.064.007-.575.131-.4.407.209.154.569-.136.683.207-.265.452-.3-.255-.664-.033.088.169.1.222.3.26l-.333.452c.4-.461.254.445.647.393.012.117-.2.031-.255.095-.033.718-.39,1-.506,1.6l-.278-.08.171-.2a.365.365,0,0,1-.44.063l-.048.238.393-.053c.355.191-.462,1.012.3.742.445-.122-.107-.766.462-.951.462.475-.026.775-.026,1.245l-.4-.007.029.233c.014.119.217.148.357.189l-.167.261-.364-.25.338.547c-.578.128.225.68-.326.514l.376.309-.428.292-.009-.059-.183.143.071-.014c-.257.568.811.675.5,1.306-.105.192-.066.482-.392.524a1.753,1.753,0,0,1,.371.3c-.045.127-.323.043-.4-.007a.416.416,0,0,1,0,.471c.263.028.461.482.279.625l.576-.133.017.116c-.059.065-.117.131-.18.137l.475.119-.031.243c-.326.512-.625-.219-.961-.3.212.147-.767.212-.512.6l.328.014c-.3.217-.818.811-.378,1.114a.79.79,0,0,0-.326.043c.419.658-.383,1.056-.5,1.658l.333.017c.024.176-.179.145-.3.274l.331-.038c.005.06-.117.135-.108.188-.128.017-.252.092-.332-.017-.157.317.119.4.148.635a.278.278,0,0,1-.136-.038l-.107.188c.067-.009-.751.806.1.756l-.485.361c.436.3-.136.428-.05.6,1.228.261-.65.083-.475.885.751.68-.167,1.209.131,1.94l.1-.248.323.435.308-.631c.176-.14.418.179.357.193l.112-.138c-.617-.159.123-.072,0-.471a.351.351,0,0,1-.15-.635c-.616-.636.662-.5.487-1.306l.152.159c.017.119.364.247.052.411l.245-.152c-.029-.231-.25-.381-.459-.471-.124.074-.11.188-.234.2.171-.2-.092-.638.3-.749l.31.376-.024-.172c-.03-.24-.369-.309-.64-.342.024-.289.544-.361.538-.415l-.153-.161.388-.052-.15-.159c-.085-.106-.372-.306-.06-.464a.072.072,0,0,1,.131.04c-.173-.337.295-.273.288-.332.265-.447.611-.371.8-.455l-.438-.3c-.337-.015-.214.385-.321.573-.069-.047-.088-.171-.219-.145l.062-.545a1.215,1.215,0,0,1,1.118-.024l-.057.065c.226-.262.2.511.428.245a.525.525,0,0,1,.116-.6l-.259.031-.007-.059a.288.288,0,0,1,.117-.074l-.372-.367a.491.491,0,0,0-.378.171l-.19-.136a.89.89,0,0,1-.545.046c.031-.243.347-.338.53-.421-.1-.818.919-.055.735-.987l.154.162c-.54.421.633.333.043.824-.382.107-.031-.239-.368-.257-.1.257.252.39.416.606l-.057.071c.057-.071.478.115.431.3-.083-.169.089-.314.079-.428l.34.074c-.059.067-.107.19-.176.2l.261.44-.711.088c-.061.541.2.987-.438,1.178.234.271.139.578-.238.687.1.225.3-.214.35.131.083.109.33.016.373-.162-.714.085.019-.362-.274-.559.164.219.576.345.419.655l.178-.139a.131.131,0,0,1-.138-.095c.111-.142.213-.328.48-.307-.019.3.305.74.007,1.012l-.157-.159a.2.2,0,0,1-.038.181l-.243-.382c.074.584-1.04.128-1.014.364l.4.009c-.295.747-.595.015-.966.655-.162.255.09.7.214.626l-.071-.055c-.04-.29.33-.454.538-.419l-.088.3.151-.307c.177.328.787.431.591.93,1.107.926-1.247.573-.178,1.625a.4.4,0,0,1-.448.59c.059.465.243.859-.243,1.156.069,0,.252-.091.271.023.085.165.054.414-.141.436l-.074-.052c-.007.417-.287.809-.055,1.074l-.188.021.064.525-.191.027c-.14-.045-.1-.226-.109-.286-.269.447.169,1.228-.354,1.294l.159.152c-.059.067-.127.074-.253.093-.156.317.654.928-.135.964.079.114.488.238.267.5l-.326.036.135.041-.235.215c.041.288-.574.606-.272.925,1.044.4-.911,1.059-.178,1.622l.061-.073.242.328-.559.254c.793.017-.053.6.356.663-.711.153.238.8-.253,1.1l-.354-.668c.1.287-.077.425-.243.623.255-.033.585-.072.683.21l-.11.132a1.615,1.615,0,0,1-.56-.223l.02.169c.81.08-.057.544.357,1.148-.241.143-.2.5-.531.476-.485.3.445.36-.045.661l-.425-.241c-.231.264.114.4.2.562l.3-.211.064.464c-.252.091-.533.009-.752.274l.387-.048c.159.216.271.552.09.7l-.218-.152c.269.5-.774.1-.315.578.136.036.185-.083.247-.156l.2.1c-.053.067-.105.191-.234.212l.212.081c.259.222-.1.45-.257.524l.186.435c.081.114-.5.71.014,1.067l-.18.143a.306.306,0,0,1-.2-.031l.057-.074c-.067.014-.114.138-.241.155.493.29-.356.333.019.654l-.323.036a.665.665,0,0,1,.229.742c.1.23.357-.283.473.06-.245.152-.392.516-.69.319l-.029-.228-.224.261c-.071-.054-.093-.164-.209-.09-.06.063.1.226-.034.24.688.21.115.869.673,1.1l-.38.11c-.1.24.4.544.052.82l-.074-.052c-.05.188.186.452-.139.493l-.074-.048c.431.236-.171.671.211,1.035l.283-.33.157.159a.583.583,0,0,1-.55.359l.13.463c-.747-.147-.133.966-.914,1.059.083.113-.015.361.193.458a.231.231,0,0,1-.379.1c.024.654-.7,1.689-.723,2.463l.823.254c.86-.466,1.991.045,2.793-.349,3.088-2.582,4.88-6.421,6.657-9.905.226-.259-.213-.566.316-.57,1.125-2.927,2.95-5.056,4.22-7.88.091-.307-.08-.585.333-.512-.04-.771.889-1.241.808-1.831l.212.1c.666-.445-.206-1.042.776-1.047.041-.187-.028-.229-.105-.349l.3-.154c.847-.579.321-1.047.753-1.753a.13.13,0,0,1,.148.1c.328-.509,1.1-.671.866-1.41.223-.328.549-.842.937-.887l-.145-.1c-.013-.114.107-.186.152-.316.763-.274.473-1.42,1.178-1.568l.012.057.4-.461-.3-.261c1.008-.367,1.316-1.534,1.756-2.179a.845.845,0,0,1,.79-.04c1.034,1.356.616,3.594,1.03,5.2.288.673-.121,1.56.152,2.112-.414.352.371.787-.164,1.21.319,2.392-.547,5.287-.031,7.652-.182,3.521-1.24,6.916-1.782,10.249l.131.034c-.63.668-.438,1.6-.485,2.255a27.976,27.976,0,0,0-1.211,4.249c.55,1.111-.7,1.687-.224,2.752-.217.321-.487.773-.193.971l-.184.142-.073-.05c-.114.612-.457,1.011-.518,1.556l.343.07c.054.407-.471-.061-.341.4.053-.074.128-.015.2.031-.3.216-.4.53-.231.745.206.033.345-.4.516-.067l-.051.067c-.143.431-.442.178-.768.212-.1.252.114.34.007.528l.128-.015.019.114c-.048.135-.122.081-.189.088l.039.3c-.6.369-.189,1.027-.537,1.368.066-.007.2-.024.2.036-.585.074-.046.654-.159.789l.473-.411.152.155c-.7.209.516.874-.371,1.161l.151.1c-.036.247.1.827-.376.647.3.311.588.452.176.806L185.5,99.3l-.009.2-.081-.11.109.347c-.607.374.633.749-.05,1.071l-.145-.043a.142.142,0,0,1,.115-.131l-.191.023c.18.335.2.512.559.7.34-.4-.4-.067-.19-.4l.264-.031c.235-.2-.314-.38.052-.592.072.053.079.1.135.043l-.011-.117a1.247,1.247,0,0,1,.932-.893l-.416-.181c-.188-.4.28-.873.526-.961.042-.179.193-.028.259-.035l-.514-.407c.514-.071.314-.631.762-.68.149.086-.154.305-.019.347a19.469,19.469,0,0,0,.585-2.079c.2-.442.059-1.018.206-1.4.07.054.137.046.157.152.162-.247-.3-.661.165-.718a14.645,14.645,0,0,0,.209-2.34l.226.209c.047-.126-.095-.229-.169-.28l.4-.463-.29-.2.121-.07c.064-.007.071.043.135.039l.475-.417-.149-.1a.492.492,0,0,1,.369-.224c-.228-.214-.081-.587.019-.83l.257.445c.269.024.457-.057.425-.293-.609-.583.538-.9.15-1.332l.162-.252-.271-.088.469-.411c-.347-.611.823-1.232-.228-1.7a.494.494,0,0,1,.492-.237l.011.061c.243-.152-.186-.4.283-.333-.128-.466.207-.916.2-1.442.414-.354-.316-.855.2-.978-.084-.647.771-1.166.235-1.694.473-.407.3-1.213.573-1.61l-.143-.095c.8-1.877.84-4.082,1.351-6.164l-.148-.107c.4-.391.169-1.2.5-1.661.3-2.167.694-4.229,1.064-6.349-.337-.558.283-.809.057-1.5l.135-.014c0-.471-.017-1.07.007-1.425-.181-.866.492-1.725.257-2.463l.171-.195-.145-.162c.257-.978.263-1.924.41-2.783a6.148,6.148,0,0,0-.181-1.87" transform="translate(-112.117 -1.37)" fill="#b3b3b3"></path><path id="Tracé_117" data-name="Tracé 117" d="M179.481,119.856a.184.184,0,0,0,.086.055l.029-.127Z" transform="translate(-121.146 -80.832)" fill="#b3b3b3"></path><path id="Tracé_118" data-name="Tracé 118" d="M181.018,134.2l.361-.28.069.048-.164-.219c-.121.072-.43.231-.266.45" transform="translate(-122.146 -90.203)" fill="#b3b3b3"></path><path id="Tracé_119" data-name="Tracé 119" d="M177.986,146.721l.324-.513a1.029,1.029,0,0,1-.324.035c.027.179.119.347,0,.478" transform="translate(-120.143 -98.564)" fill="#b3b3b3"></path><path id="Tracé_120" data-name="Tracé 120" d="M178.971,146.189h.007s0,0,0-.011Z" transform="translate(-120.804 -98.544)" fill="#b3b3b3"></path><path id="Tracé_121" data-name="Tracé 121" d="M27.435,171.5H8.659c-.179,6.819,2.846,9.9,8.709,9.9a20.36,20.36,0,0,0,8.587-1.9l.595,5.024a26.813,26.813,0,0,1-10.192,1.906c-9.181,0-14.215-4.737-14.215-15.105,0-8.885,4.856-15.514,13.444-15.514,8.413,0,12.03,5.743,12.03,12.732a28.374,28.374,0,0,1-.181,2.958M15.351,160.487c-3.554,0-6.04,2.609-6.573,6.574h12.5c.119-4.026-2.191-6.574-5.926-6.574" transform="translate(-2.143 -105.007)" fill="#b3b3b3"></path><path id="Tracé_122" data-name="Tracé 122" d="M101.833,164.972c-6.274,0-8.172-2.424-8.172-9V139.917H88.034V135h5.628v-9.359l6.276-1.718V135h7.76v4.916H100v14.1c0,4.38.889,5.572,3.849,5.572a15.975,15.975,0,0,0,3.849-.477v5.2a30.431,30.431,0,0,1-5.864.654" transform="translate(-59.78 -83.61)" fill="#b3b3b3"></path><path id="Tracé_123" data-name="Tracé 123" d="M284.022,128.091a3.971,3.971,0,1,1,0-7.939,3.987,3.987,0,0,1,4.032,3.966,4.03,4.03,0,0,1-4.032,3.973m-3.2,4.38h6.338v29.437H280.82Z" transform="translate(-188.56 -81.079)" fill="#b3b3b3"></path><path id="Tracé_124" data-name="Tracé 124" d="M341.457,185.836a39.5,39.5,0,0,1,.293-5.453l-.057-.058a10.275,10.275,0,0,1-9.778,6.1c-5.034,0-8.234-2.841-8.234-7.523,0-6.751,6.759-10.661,17.365-10.661v-1.892c0-3.673-1.544-5.569-6.166-5.569a18.066,18.066,0,0,0-8.771,2.367l-.593-5.391a29.5,29.5,0,0,1,10.372-1.949c8.989,0,11.486,3.907,11.486,9.949v12.019c0,2.548.057,5.579.177,8.06Zm-.41-13.327c-9.248,0-11.26,2.781-11.26,5.327,0,2.2,1.538,3.616,4.03,3.616,4.321,0,7.23-4.14,7.23-8.35Z" transform="translate(-217.912 -105.007)" fill="#b3b3b3"></path><path id="Tracé_125" data-name="Tracé 125" d="M425.148,186.426a34.09,34.09,0,0,1-6.219-.593l.178-5.384a23.717,23.717,0,0,0,6.4.943c3.436,0,5.809-1.471,5.809-3.909,0-5.926-12.918-2.376-12.918-12.558,0-5.09,4.147-9.12,12.146-9.12a35.616,35.616,0,0,1,5.508.53l-.178,5.158a20.644,20.644,0,0,0-5.745-.834c-3.491,0-5.213,1.425-5.213,3.668,0,5.693,13.04,2.788,13.04,12.562,0,5.513-4.924,9.537-12.808,9.537" transform="translate(-281.471 -105.004)" fill="#b3b3b3"></path></g></g></g></svg> 