<?xml version="1.0" encoding="UTF-8"?> <!-- Generator: Adobe Illustrator 24.0.0, SVG Export Plug-In . SVG Version: 6.00 Build 0) --> <svg xmlns="http://www.w3.org/2000/svg" xmlns:xlink="http://www.w3.org/1999/xlink" id="Calque_1" x="0px" y="0px" viewBox="0 0 274 150" style="enable-background:new 0 0 274 150;" xml:space="preserve"> <style type="text/css"> .st0{fill:#B3B3B3;} </style> <path class="st0" d="M159.4,93.3h8.7c-5.9,9.2-16.1,15.1-27.8,15.1c-11.6,0-21.9-5.9-27.8-15.1h8.7c4.8,5,11.5,8.3,19.1,8.3 C147.8,101.5,154.6,98.3,159.4,93.3z M148.8,89.5V61.8h7.5v27.7H148.8z M152.7,45.2c3,0,5.5,2.5,5.5,5.5c0,3-2.5,5.5-5.5,5.5 c-3,0-5.5-2.5-5.5-5.5C147.2,47.7,149.7,45.2,152.7,45.2z M137.3,89.5H129l-4.8-20.2h-0.1l-4.8,20.2H111l-8.7-27.7h8.6l4.8,20h0.1 l4.3-20h8.1l4.6,20h0.1l4.8-20h8.3L137.3,89.5z M140.3,130.5c-30.4,0-55.1-24.6-55.1-55.1c0-29.3,22.9-53.3,51.8-54.9l2.1,6.8 c-26.1,0.6-47,21.9-47,48.2c0,26.6,21.6,48.2,48.2,48.2c9.7,0,18.7-2.9,26.3-7.8l2.1,6.8C160.4,127.6,150.7,130.5,140.3,130.5z M188.3,89.5h-7.5V72.7c0-2-0.1-5.5-5-5.5c-3.4,0-6,2.2-6,6.4v15.9h-7.7V61.8h7.5v4h0c1-1.7,3.2-4.8,8.7-4.8c5.7,0,10,3.2,10,9.3 V89.5z"></path> </svg> 