<?xml version="1.0" encoding="UTF-8"?> <!-- Generator: Adobe Illustrator 24.0.0, SVG Export Plug-In . SVG Version: 6.00 Build 0) --> <svg xmlns="http://www.w3.org/2000/svg" xmlns:xlink="http://www.w3.org/1999/xlink" id="Calque_1" x="0px" y="0px" viewBox="0 0 274 150" style="enable-background:new 0 0 274 150;" xml:space="preserve"> <style type="text/css"> .st0{fill:#B3B3B3;} .st1{clip-path:url(#SVGID_3_);fill:#B3B3B3;} .st2{clip-path:url(#SVGID_5_);fill:#B3B3B3;} .st3{clip-path:url(#SVGID_7_);fill:#B3B3B3;} .st4{clip-path:url(#SVGID_9_);fill:#B3B3B3;} .st5{clip-path:url(#SVGID_11_);fill:#B3B3B3;} .st6{clip-path:url(#SVGID_13_);fill:#B3B3B3;} .st7{fill:#FFFFFF;} </style> <g> <g> <g> <rect id="SVGID_1_" x="45.8" y="50.4" class="st0" width="50" height="50"></rect> </g> <g> <defs> <rect id="SVGID_2_" x="45.8" y="50.4" width="50" height="50"></rect> </defs> <clipPath id="SVGID_3_"> <use xlink:href="#SVGID_2_" style="overflow:visible;"></use> </clipPath> <rect x="45.8" y="50.4" class="st1" width="50" height="50"></rect> </g> </g> <g> <g> <defs> <path id="SVGID_4_" d="M49.7,51.3c-0.9,0-1.6,0.8-1.7,2c0,0-1.2,6.6-1.2,20.5S48,96.8,48,96.8c0.1,1.1,0.8,2,1.7,2H93 c0.9,0,1.7-0.8,1.7-2c0,0-0.5-10.7-0.5-21.1s0.5-22.4,0.5-22.4c0-1.1-0.8-2-1.7-2H49.7z"></path> </defs> <use xlink:href="#SVGID_4_" style="overflow:visible;fill:#B3B3B3;"></use> <clipPath id="SVGID_5_"> <use xlink:href="#SVGID_4_" style="overflow:visible;"></use> </clipPath> <rect x="46.7" y="51.3" class="st2" width="48" height="47.5"></rect> </g> </g> <g> <g> <defs> <path id="SVGID_6_" d="M74,56.3c1.4,0.6,6.8,3.6,7.5,4.5c-2.8,0.4-8.2,1.7-11.1,3.2l-0.1,0.4c3.2-0.7,7.7-1.1,10.8-1.2 c-1.2,1.7-1.9,2.5-3.7,4.4l-0.1,0.3c3.3-2,4.3-2.2,7.4-4c1.2,1.7,1.5,5.7,1.5,8.9c1-2,2.3-9.5,1.7-10.9c2-1.4,2.3-2.5,2.3-2.5 c-1.9,0.1-2.9,0.2-3.9,0.5c-2.4-1.5-7.9-3.4-12.1-3.9L74,56.3z"></path> </defs> <clipPath id="SVGID_7_"> <use xlink:href="#SVGID_6_" style="overflow:visible;"></use> </clipPath> <rect x="70.3" y="56.1" class="st3" width="19.9" height="16.8"></rect> </g> </g> <g> <g> <defs> <path id="SVGID_8_" d="M53.5,79.8c-0.3,2.5-0.4,4.3,0,6.3c-1,0.3-1.9,0.3-2.7,0.7l-0.1,0.4c1.3,0.8,2.3,1.5,3.9,2.1 c0.8,1.7,1.6,2.8,2.9,4.1l0.1-0.4c-0.2-0.9-0.5-1.7-0.4-2.8c1.7,0.5,3.1,0.7,4.9,0.8l0.1-0.4c-1.7-0.7-3.3-1.2-4.6-2.4 c0.4-1.2,0.9-2,1.7-3.2l0.1-0.4c-1.4,0.2-2.7,0.7-3.9,0.9c-0.9-1.7-1.3-4-1.8-6.2L53.5,79.8z"></path> </defs> <clipPath id="SVGID_9_"> <use xlink:href="#SVGID_8_" style="overflow:visible;"></use> </clipPath> <rect x="50.6" y="79.4" class="st4" width="11.6" height="13.9"></rect> </g> </g> <g> <g> <defs> <path id="SVGID_10_" d="M61.9,68.4c0,0-1-0.1-2.8-0.1c-1.5,0.1-3.7,0.2-4.7,0.5l-0.1,0.4c1.7,0.1,4,0.5,4.9,1.5 c0,0-2.6,2.3-5.2,7.4c0,0,4.7-4.4,6.6-5.5c0,0,1,3.5,1.8,5.2l0.1-0.4c0.2-1.2,0.7-4.2,1.5-6c0,0,0.3-0.2,1.8-0.4 c1.5-0.1,3.6-0.2,7.6,0.5l0.1-0.4c-0.9-0.5-4.5-2.1-8.4-2.6h0.1c0.5-1.5,1.2-2.7,1.2-2.7C65.8,66,63.4,67.1,61.9,68.4"></path> </defs> <clipPath id="SVGID_11_"> <use xlink:href="#SVGID_10_" style="overflow:visible;"></use> </clipPath> <rect x="54" y="65.9" class="st5" width="19.7" height="12.1"></rect> </g> </g> <g> <g> <defs> <path id="SVGID_12_" d="M71.6,89.8c-0.1-0.7-0.1-1.2-0.1-2c-0.8,1.1-1.5,2-2.4,3c-0.9,0.3-2,0.2-3,0.2c-0.4,0-0.7,0-1.1,0 l-0.1,0.4c0.9,0.4,1.8,0.7,2.8,0.9c-0.8,0.7-1.8,1.2-2.5,1.7L65,94.4c1.5-0.4,3.6-1,5.2-2c0.8,0,1.5,0,2.1-0.1l0.1-0.4 c-0.1-0.4-0.4-0.6-0.5-1.1c1.5-1.1,2.5-2.1,3.6-3.3l0.1-0.4C74.4,88.1,73,89.2,71.6,89.8"></path> </defs> <clipPath id="SVGID_13_"> <use xlink:href="#SVGID_12_" style="overflow:visible;"></use> </clipPath> <rect x="64.8" y="87.2" class="st6" width="10.8" height="7.1"></rect> </g> </g> <g> <path class="st7" d="M84.7,63.6c-3.1,1.8-4,2-7.4,4c2-2.1,2.6-3,3.9-4.8c-3.1,0.1-7.6,0.5-10.8,1.2c2.8-1.5,8.3-3.1,11.3-3.6 c-0.7-0.9-6.2-3.9-7.5-4.5c4.4,0.4,9.7,2,12.2,3.6c1-0.3,2-0.4,3.9-0.5c-0.5,0.8-0.5,1.3-2.3,2.5c0.5,1.4-0.7,8.9-1.7,10.9 C86.2,69.3,85.9,65.4,84.7,63.6"></path> <path class="st7" d="M62.2,90.6c-1.7-0.7-3.1-1.5-4.4-2.8c0.4-1.2,0.9-2,1.7-3.2c-1.5,0.2-2.5,0.4-3.7,0.6c-1-1.7-1.5-3.5-2-5.8 c-0.3,2.5-0.4,4.3,0,6.3c-1.2,0.3-2,0.6-2.9,1c1.3,0.8,2.4,1.5,3.9,2.1c0.8,1.7,1.6,2.8,2.9,4.1c-0.3-1.1-0.4-2-0.3-3.1 C58.9,90.3,60.3,90.6,62.2,90.6"></path> <path class="st7" d="M66.8,65.6L66.8,65.6c-0.6,0.7-1.2,2-1.4,2.7c4.6,0.7,8.2,3,8.2,3c-4-0.7-6.1-0.7-7.6-0.5S64.2,71,64.2,71 c-1.1,2.3-1.7,6.4-1.7,6.4c-0.7-1.7-1.7-5.2-1.7-5.2c-2,1.1-6.6,5.5-6.6,5.5c2.5-5.1,5.2-7.4,5.2-7.4c-0.9-0.9-3.2-1.4-4.9-1.5 c0.9-0.4,3.1-0.8,4.9-0.9C60.9,67.8,62,68,62,68C63.6,66.8,66,65.7,66.8,65.6"></path> <path class="st7" d="M71.6,87.5c-0.8,1.1-1.5,2-2.4,3c-1.5,0.4-2.8,0.6-4.3,0.6c0.9,0.5,1.8,0.7,2.8,0.9c-0.9,0.9-1.7,1.5-2.7,2.1 c1.5-0.4,3.6-1,5.2-2c0.8,0,1.5,0,2.1-0.1c-0.1-0.4-0.2-0.8-0.4-1.4c1.5-1.1,2.5-2.1,3.7-3.3c-1.3,0.9-2.4,1.5-3.9,2.3 C71.7,88.8,71.6,88.2,71.6,87.5"></path> </g> <rect x="108.8" y="75.9" class="st0" width="118.3" height="1.7"></rect> <path class="st0" d="M108.9,61.1c0.1,1.2,0.1,4.3,0.1,5.4c0,1,0,4.4-0.1,5.9v0.1h5.4c2.6,0,5.4-0.8,5.4-3.1c0-1.5-1.1-2.5-3.1-3.1 c1.5-0.4,2.5-1.4,2.5-2.5c0-1.9-2.2-2.6-4.2-2.7L108.9,61.1L108.9,61.1 M113.1,62.3c2.3,0,3.1,0.4,3.1,1.7c0,0.3-0.1,0.6-0.3,0.9 c-0.4,0.5-1.3,0.8-2.3,0.7h-0.1l-0.6,1.6h0.7c1.2-0.1,2.3,0.4,2.8,1c0.3,0.3,0.4,0.7,0.4,1c0,1.3-1.1,2-3.3,2c-0.4,0-0.9,0-1.4,0 c-0.1-1.7-0.1-4-0.1-4.7c0-0.8,0-2.6,0.1-4.1C112.3,62.3,112.6,62.3,113.1,62.3"></path> <path class="st0" d="M132,61h-2.6l0.1,2.9c0.1,1.5,0.1,2.9,0.2,4.4c-0.1-0.4-0.3-0.7-1.1-1.8c0-0.1-2.8-4.2-3.6-5.4l0,0h-3.1v0.1 c0.1,1.2,0.1,4.2,0.1,5.4c0,1,0,4.4-0.1,5.9v0.1h2.7v-0.1c-0.1-2.8-0.1-5.7-0.1-8.4l0,0c0.1,0.4,0.2,0.7,0.7,1.2 c0.1,0.1,4.7,6.8,4.9,7.2v0.1h2.2v-0.1c-0.1-1.5-0.1-4.9-0.1-5.9c0-1.1,0.1-4.1,0.1-5.4V61H132"></path> <path class="st0" d="M135.1,61.1c0.1,1.2,0.1,4.3,0.1,5.4c0,1,0,4.4-0.1,5.9v0.1h3.2v-0.1c-0.1-1.1-0.1-3.1-0.1-4.7 c0.1,0,0.6,0,0.6,0h0.4c4.2,0,6.3-1.2,6.3-3.5c0-2.7-2.9-3.3-5.3-3.3h-5L135.1,61.1 M139,62.4c1.5,0,2.5,0.3,3.1,0.9 c0.2,0.3,0.4,0.7,0.4,1c0,1.7-1.9,2-3.4,2h-0.7c0,0-0.1,0-0.3-0.1c0-0.4,0-0.9,0-1.5c0-0.7,0-1.6,0-2.4 C138.4,62.5,138.8,62.4,139,62.4"></path> <path class="st0" d="M151.6,61.1c0.1,1.2,0.1,4.3,0.1,5.4c0,1,0,4.4-0.1,5.9v0.1h3.2v-0.1c-0.1-1.1-0.1-3.1-0.1-4.7 c0.1,0,0.6,0,0.6,0h0.4c4.2,0,6.3-1.2,6.3-3.5c0-2.7-2.9-3.3-5.3-3.3h-5L151.6,61.1 M155.6,62.4c1.5,0,2.5,0.3,3.1,0.9 c0.2,0.3,0.4,0.7,0.4,1c0,1.7-1.9,2-3.4,2h-0.7c0,0-0.1,0-0.2-0.1c0-0.4,0-0.9,0-1.5c0-0.7,0-1.6,0.1-2.4 C154.8,62.5,155.2,62.4,155.6,62.4"></path> <path class="st0" d="M166.3,61L166.3,61L166.3,61c-0.7,1.7-4.5,10.1-5.1,11.4l-0.1,0.1h2.8v-0.1c0.2-0.8,0.6-1.7,0.9-2.6 c0.1,0,2.3,0,2.3,0h1.9c0,0,0.4,0,0.4,0c0.5,1.2,0.9,2.2,1,2.6v0.1h3.2L168.4,61h-0.1L166.3,61 M167.1,64.4 c0.3,0.5,0.9,2.1,1.7,3.9c-0.1,0-0.2,0-0.2,0h-1.4c0,0-1.5,0-1.7,0C165.9,66.8,166.6,65.5,167.1,64.4"></path> <path class="st0" d="M174.8,61.1c0.1,1.2,0.1,4.2,0.1,5.4c0,1,0,4.4-0.1,5.9v0.1h3.2v-0.1c-0.1-1.5-0.1-4.9-0.1-5.9 c0-0.8,0-2.6,0.1-4c0.3,0,0.7-0.1,0.9-0.1c1.5,0,2.5,0.3,3.1,0.9c0.2,0.3,0.4,0.7,0.4,1c0,1.3-1.2,2-2.4,2c-0.4,0-0.7,0-0.7,0 l-0.2-0.1l0.1,0.2c1.1,1.7,2.8,4.6,3.6,6v0.1h3.4l-0.1-0.1c-0.1-0.2-2.4-3.5-3.3-4.9c0,0,0-0.1-0.1-0.1c1.7-0.5,2.6-1.5,2.6-3.1 c0-2.7-2.9-3.3-5.3-3.3L174.8,61.1L174.8,61.1"></path> <path class="st0" d="M190.6,61h-3.1v0.1c0.1,1.2,0.1,4.3,0.1,5.4c0,1,0,4.4-0.1,5.9v0.1h3.2v-0.1c-0.1-1.5-0.1-4.9-0.1-5.9 c0-1.1,0.1-4.1,0.1-5.4V61H190.6"></path> <path class="st0" d="M193.6,61.1c0.1,1.2,0.1,4.3,0.1,5.4c0,1,0,4.4-0.1,5.9v0.1h5.4c2.6,0,5.4-0.8,5.4-3.1c0-1.5-1.1-2.5-3.1-3.1 c1.5-0.4,2.5-1.4,2.5-2.5c0-1.9-2.2-2.6-4.2-2.7L193.6,61.1L193.6,61.1 M197.7,62.3L197.7,62.3c2.3,0,3.1,0.4,3.1,1.7 c0,0.3-0.1,0.6-0.3,0.9c-0.4,0.5-1.3,0.8-2.3,0.7h-0.1l-0.6,1.6h0.7c1.2-0.1,2.3,0.4,2.8,1c0.3,0.3,0.4,0.7,0.4,1 c0,1.3-1.1,2-3.3,2c-0.4,0-0.9,0-1.4,0c-0.1-1.7-0.1-4-0.1-4.7c0-0.8,0-2.6,0.1-4.1C196.9,62.3,197.3,62.3,197.7,62.3"></path> <path class="st0" d="M212.3,61h-2.2v0.1c-0.7,1.7-4.7,10.6-5,11.4l-0.1,0.1h2.8v-0.1c0.2-0.8,0.6-1.7,0.9-2.6c0.1,0,2.3,0,2.3,0 h1.9c0,0,0.3,0,0.4,0c0.5,1.2,0.9,2.2,1,2.6v0.1h3.2L212.3,61L212.3,61 M210.9,64.4c0.3,0.5,0.9,2.1,1.7,3.9c-0.1,0-0.2,0-0.2,0 H211c0,0-1.5,0-1.7,0C209.8,66.8,210.4,65.5,210.9,64.4"></path> <path class="st0" d="M218.3,64c0,2,2,2.8,3.9,3.6c1.4,0.6,2.8,1.2,2.8,2.1c0,0.3-0.1,0.5-0.2,0.7c-0.4,0.4-1,0.6-2.1,0.5 s-2.3-0.4-3.6-1l-0.6-0.3V70v2l0.4,0.1l0.2,0.1c0.7,0.1,2,0.4,3.3,0.4c3.4,0,5.4-1.3,5.4-3.6c0-2.1-2.1-2.9-3.9-3.6 c-1.4-0.5-2.8-1.1-2.8-2c0-0.3,0-1,1.7-1c1.3,0,2.5,0.5,3.3,0.8l0.7,0.3v-0.4V61l-0.7-0.1c-0.7-0.1-1.7-0.4-2.9-0.4 C220.3,60.6,218.3,61.9,218.3,64"></path> <path class="st0" d="M146,80.7v1.6c-1.5-0.1-4.1-0.1-4.1-0.1c-0.2,0-0.5,0-0.7,0c0,0.9,0,2,0,2.7l3.3-0.1v1.5h-3.3v0.2 c0,1.2,0.1,2.8,0.1,4H138c0.1-1.5,0.1-4.3,0.1-5.2c0-0.9,0-3.6-0.1-4.7L146,80.7"></path> <path class="st0" d="M152.9,90.8c-3.1,0-5.4-2.1-5.4-5.2c0-3.1,2.3-5.2,5.4-5.2c3.1,0,5.4,2.1,5.4,5.2 C158.3,88.7,155.9,90.8,152.9,90.8 M152.9,81.7c-1.5,0-2.3,1.4-2.3,3.9c0,2.5,0.9,3.9,2.3,3.9c1.4,0,2.3-1.4,2.3-3.9 C155.2,83.1,154.3,81.7,152.9,81.7"></path> <path class="st0" d="M165.4,80.7c2.2,0,4.7,0.8,4.7,3.1c0,1.2-0.9,2.1-2.3,2.7c0.3,0.5,2.7,3.6,3.1,4.1h-3.5 c-0.7-1.2-1.8-3.2-3-4.9c1.4,0.1,2.6-0.5,2.6-1.8c0-1.3-1.5-1.7-2.3-1.7c-0.4,0-0.9,0-1.2,0c-0.1,1.2-0.1,2.6-0.1,3.3 c0,0.9,0,3.6,0.1,5.2h-3.3c0.1-1.5,0.2-3.2,0.2-5.2c0-1.7,0-3.6-0.1-4.7L165.4,80.7"></path> <path class="st0" d="M181,80.7v1.6c-1.5-0.1-2-0.2-3.1-0.2c-0.1,1.2-0.1,2.7-0.1,3.3c0,0.9,0,3.6,0.2,5.2h-3.3 c0.1-1.5,0.1-4.4,0.1-5.2c0-0.7-0.1-2.3-0.1-3.3c-1.2,0-1.7,0.1-3.2,0.2v-1.6H181"></path> <path class="st0" d="M186.5,80.7c-0.1,1.1-0.1,3.8-0.1,4.7c0,0.9,0,3.8,0.1,5.2h-3.3c0.1-1.5,0.2-4.3,0.2-5.2 c0-0.9-0.1-3.6-0.1-4.7H186.5"></path> <path class="st0" d="M193.5,80.4c1.2,0,2.5,0.2,3.3,0.4v2.5c-1.1-0.7-2.1-1.2-3.6-1.2c-1.1,0-1.2,0.4-1.2,0.8 c0,1.7,5.6,1.7,5.6,4.7c0,2-1.8,3.1-4.8,3.1c-1.4,0-2.6-0.3-3.5-0.6v-2.4c2,0.9,3.1,1.3,4.1,1.3c0.8,0,1.3-0.4,1.3-1 c0-1.9-5.6-1.7-5.6-4.9C189.2,81.5,190.9,80.4,193.5,80.4"></path> </g> </svg> 