<?xml version="1.0" encoding="UTF-8"?> <svg xmlns="http://www.w3.org/2000/svg" xmlns:xlink="http://www.w3.org/1999/xlink" width="274" height="150" viewBox="0 0 274 150"><defs><clipPath id="clip-path"><path id="Tracé_103" data-name="Tracé 103" d="M85.855,7.566c-10.116,21.881-33.7,44.292-52.7,50q-1.637.492-3.156.8a25.041,25.041,0,0,1-4.962.537,16.2,16.2,0,0,1-4.025-.474C11.6,56.013,9.572,44.516,17.187,28.159L7.116,31.186Q5.225,35.247,3.85,39.041s0,0,0,.005l-.078.215,0,.009c-.026.07-.051.14-.076.209a.082.082,0,0,1,0,.016c-.024.068-.049.135-.072.2a.15.15,0,0,1-.008.02c-.023.068-.047.135-.07.2l-.008.022-.067.192c0,.011-.006.021-.011.031-.022.061-.043.124-.065.187,0,.011-.009.023-.013.036-.02.058-.041.118-.061.177l-.016.048c-.019.056-.039.113-.058.17q-.007.025-.017.05c-.017.056-.037.11-.056.167-.006.017-.012.035-.017.053l-.054.16-.02.061c-.018.053-.033.1-.051.155-.006.021-.014.043-.022.064-.016.05-.032.1-.049.151-.007.024-.015.047-.023.071l-.046.142-.024.075c-.015.046-.03.093-.045.138s-.018.06-.028.09-.026.08-.038.119-.027.086-.041.129-.017.056-.025.082c-.015.049-.031.1-.047.147l-.02.065c-.017.055-.032.108-.05.163,0,.016-.011.033-.016.05-.021.069-.041.137-.062.2v0A52.289,52.289,0,0,0,0,57.7v.6C.106,70.528,6.622,77.858,18.388,78.136a34.144,34.144,0,0,0,5.189-.3.022.022,0,0,0,.01,0l.034,0A49.8,49.8,0,0,0,31.474,76.1c29-8.738,64.993-42.958,80.343-76.316Z" transform="translate(0 0.217)" fill="#b3b3b3"></path></clipPath><clipPath id="clip-path-2"><path id="Tracé_106" data-name="Tracé 106" d="M62.633,61.648c-.035.076-.07.153-.105.227-2.945,6.443-2.93,11.374-.5,13.8l.083.083h0a.213.213,0,0,1,.025.023l.017.016a6.373,6.373,0,0,0,4.482,1.533c.177,0,.357-.005.54-.013a15.342,15.342,0,0,0,3.584-.665c9.7-2.91,21.745-14.341,26.907-25.5Z" transform="translate(-60.258 -51.145)" fill="#b3b3b3"></path></clipPath></defs><g id="logo_bpost" transform="translate(-376 -5224)"><rect id="Rectangle_87" data-name="Rectangle 87" width="274" height="150" transform="translate(376 5224)" fill="none"></rect><g id="logo_bpost-2" data-name="logo_bpost" transform="translate(436 5257.217)"><path id="Tracé_100" data-name="Tracé 100" d="M261.346,195.376a7.069,7.069,0,0,1-2.108-.279v-9.045a6.293,6.293,0,0,1,2.072-.3c2.756,0,4.279,1.766,4.279,4.793,0,2.837-1.451,4.828-4.243,4.828m-.1-12.566a17.934,17.934,0,0,0-6.495,1.08v20.187h4.486v-6.133a11.058,11.058,0,0,0,2.568.325c5.432,0,8.287-3.109,8.287-7.72,0-4.847-3.116-7.738-8.846-7.738m19.124,12.539c-2.36,0-3.54-1.776-3.54-4.766s1.18-4.81,3.54-4.81c2.4,0,3.567,1.812,3.567,4.81s-1.171,4.766-3.567,4.766m0-12.539c-5.153,0-8.017,3.324-8.017,7.79s2.864,7.837,8.017,7.837c5.17,0,8.035-3.36,8.035-7.837s-2.865-7.79-8.035-7.79m16.7,0c-4.134,0-6.5,1.774-6.5,4.406,0,2.943,2.82,3.836,5.064,4.521,1.594.476,2.738.954,2.738,2.062,0,1-1.035,1.641-2.665,1.641a11.112,11.112,0,0,1-4.153-.974L290.1,197.35a15.131,15.131,0,0,0,5.747,1.089c4.72,0,7.2-1.827,7.2-4.639,0-3.027-2.874-3.854-5.207-4.576-1.549-.466-2.711-.918-2.711-2.062,0-.883.937-1.549,2.513-1.549a8.984,8.984,0,0,1,3.522.865l1.387-2.586a13.278,13.278,0,0,0-5.477-1.08m14.359-4.082-4.414,1.071v3.333h-2.279v2.829h2.279V193.6c0,3.134,1.622,4.719,5.053,4.719a8.334,8.334,0,0,0,2.693-.4v-3.144a4.282,4.282,0,0,1-1.288.225c-1.144,0-2.045-.423-2.045-1.639v-7.4h3.333v-2.829h-3.333v-4.4M243.078,195.35a6.292,6.292,0,0,1-2.072-.307V185.99a7.927,7.927,0,0,1,2.108-.27c2.8,0,4.252,1.991,4.252,4.829,0,3.026-1.514,4.8-4.288,4.8m-2.072-18.323h-4.467v20.178a17.725,17.725,0,0,0,6.485,1.09c5.73,0,8.855-2.9,8.855-7.747,0-4.6-2.873-7.719-8.314-7.719a10.528,10.528,0,0,0-2.559.333v-6.135" transform="translate(-160.537 -120.295)" fill="#b3b3b3"></path><g id="Groupe_23" data-name="Groupe 23" transform="translate(0 -0.217)"><path id="Tracé_101" data-name="Tracé 101" d="M85.855,7.566c-10.116,21.881-33.7,44.292-52.7,50q-1.637.492-3.156.8a25.041,25.041,0,0,1-4.962.537,16.2,16.2,0,0,1-4.025-.474C11.6,56.013,9.572,44.516,17.187,28.159L7.116,31.186Q5.225,35.247,3.85,39.041s0,0,0,.005l-.078.215,0,.009c-.026.07-.051.14-.076.209a.082.082,0,0,1,0,.016c-.024.068-.049.135-.072.2a.15.15,0,0,1-.008.02c-.023.068-.047.135-.07.2l-.008.022-.067.192c0,.011-.006.021-.011.031-.022.061-.043.124-.065.187,0,.011-.009.023-.013.036-.02.058-.041.118-.061.177l-.016.048c-.019.056-.039.113-.058.17q-.007.025-.017.05c-.017.056-.037.11-.056.167-.006.017-.012.035-.017.053l-.054.16-.02.061c-.018.053-.033.1-.051.155-.006.021-.014.043-.022.064-.016.05-.032.1-.049.151-.007.024-.015.047-.023.071l-.046.142-.024.075c-.015.046-.03.093-.045.138s-.018.06-.028.09-.026.08-.038.119-.027.086-.041.129-.017.056-.025.082c-.015.049-.031.1-.047.147l-.02.065c-.017.055-.032.108-.05.163,0,.016-.011.033-.016.05-.021.069-.041.137-.062.2v0A52.289,52.289,0,0,0,0,57.7v.6C.106,70.528,6.622,77.858,18.388,78.136a34.144,34.144,0,0,0,5.189-.3.022.022,0,0,0,.01,0l.034,0A49.8,49.8,0,0,0,31.474,76.1c29-8.738,64.993-42.958,80.343-76.316Z" transform="translate(0 0.217)" fill="#b3b3b3"></path><g id="Groupe_22" data-name="Groupe 22" clip-path="url(#clip-path)"><path id="Tracé_102" data-name="Tracé 102" d="M-115.461-84.6-3.333-162.547,70.552-57.788-41.577,20.159Z" transform="translate(78.363 110.39)" fill="#b3b3b3"></path></g></g><g id="Groupe_25" data-name="Groupe 25" transform="translate(19.361 16.286)"><path id="Tracé_104" data-name="Tracé 104" d="M62.633,61.648c-.035.076-.07.153-.105.227-2.945,6.443-2.93,11.374-.5,13.8l.083.083h0a.213.213,0,0,1,.025.023l.017.016a6.373,6.373,0,0,0,4.482,1.533c.177,0,.357-.005.54-.013a15.342,15.342,0,0,0,3.584-.665c9.7-2.91,21.745-14.341,26.907-25.5Z" transform="translate(-60.258 -51.145)" fill="#b3b3b3"></path><g id="Groupe_24" data-name="Groupe 24" clip-path="url(#clip-path-2)"><path id="Tracé_105" data-name="Tracé 105" d="M19.6,22.235,57.54-4.142,82.459,31.19,44.515,57.567Z" transform="translate(-32.661 -13.622)" fill="#b3b3b3"></path></g></g></g></g></svg> 