<?xml version="1.0" encoding="UTF-8"?> <!-- Generator: Adobe Illustrator 24.0.0, SVG Export Plug-In . SVG Version: 6.00 Build 0) --> <svg xmlns="http://www.w3.org/2000/svg" xmlns:xlink="http://www.w3.org/1999/xlink" id="Calque_1" x="0px" y="0px" viewBox="0 0 274 150" style="enable-background:new 0 0 274 150;" xml:space="preserve"> <style type="text/css"> .st0{fill:#B3B3B3;} </style> <path class="st0" d="M183.7,43c-9.2,0-17.5,3.8-23.5,10c-5.9-6.2-14.2-10-23.4-10c-9.2,0-17.6,3.9-23.5,10c-5.9-6.2-14.2-10-23.5-10 c-17.9,0-32.5,14.5-32.5,32.5c0,17.9,14.6,32.5,32.5,32.5c9.2,0,17.6-3.9,23.5-10c5.9,6.2,14.2,10,23.5,10c9.2,0,17.5-3.9,23.4-10 c5.9,6.2,14.2,10,23.5,10c18,0,32.5-14.6,32.5-32.5C216.2,57.5,201.7,43,183.7,43 M107,69.1L94.3,88.7c-1,1.5-2.7,2.4-4.4,2.4 c-1.7,0-3.4-0.8-4.4-2.4L72.7,69.1c-1.6-2.4-0.9-5.7,1.5-7.2c2.4-1.6,5.7-0.9,7.3,1.5l8.4,12.9l8.4-12.9c1.6-2.4,4.8-3.1,7.3-1.5 C107.9,63.4,108.6,66.7,107,69.1 M136.8,89.9c-8,0-14.4-6.5-14.4-14.4c0-8,6.5-14.4,14.4-14.4s14.4,6.5,14.4,14.4 C151.2,83.4,144.8,89.9,136.8,89.9 M183.7,89.9c-8,0-14.4-6.5-14.4-14.4c0-8,6.5-14.4,14.4-14.4c8,0,14.4,6.5,14.4,14.4 C198.1,83.4,191.7,89.9,183.7,89.9"></path> </svg> 