<?xml version="1.0" encoding="UTF-8"?> <!-- Generator: Adobe Illustrator 24.0.0, SVG Export Plug-In . SVG Version: 6.00 Build 0) --> <svg xmlns="http://www.w3.org/2000/svg" xmlns:xlink="http://www.w3.org/1999/xlink" id="Calque_1" x="0px" y="0px" viewBox="0 0 274 150" style="enable-background:new 0 0 274 150;" xml:space="preserve"> <style type="text/css"> .st0{fill:#B3B3B3;} </style> <g> <g> <path class="st0" d="M134.2,32.9c-0.6-0.2-1.1-0.4-1.4-0.4c-0.3-0.1-0.6-0.1-1-0.1c-1.5,0-2.9,0.7-3.6,1.7 c-1.7,2.9,0.9,6.2,2.8,8.1c0.9-0.1,1.7-0.2,2.6-0.3c-1.8-2-3.6-4.9-2.1-7.4C132.1,33.7,133.1,33.2,134.2,32.9"></path> </g> <g> <path class="st0" d="M138.8,35.8c0-1.1-0.9-2-1.9-2c-1.1,0-2,0.9-2,2c0,1.1,0.9,2,2,2C137.9,37.8,138.8,37,138.8,35.8"></path> </g> <g> <path class="st0" d="M126.8,33.2c0.2-0.3,0.3-0.5,0.6-0.7c-1.2,0.1-2.4,0.7-3,1.7c-1.9,3.2,1.6,7.1,3.5,8.8 c0.4-0.1,0.8-0.2,1.2-0.3c-1.1-1.2-2.2-2.8-2.7-4.5C125.7,36.3,125.9,34.7,126.8,33.2"></path> </g> <g> <path class="st0" d="M147.3,38.2c-0.5,1.7-1.6,3.2-2.7,4.5c0.4,0.1,0.8,0.2,1.2,0.3c1.8-1.7,5.4-5.6,3.5-8.8c-0.6-1-1.8-1.5-3-1.7 c0.2,0.2,0.4,0.5,0.6,0.7C147.7,34.7,147.9,36.3,147.3,38.2"></path> </g> <g> <path class="st0" d="M168.1,52.5c-4.4-4.4-9.7-7.8-15.4-10c0.9-1.2,1.7-2.6,2.1-4.1c0.9-2.7,0.6-5.3-0.8-7.6 c-1.5-2.5-4.5-4.1-7.8-4.1c-0.7,0-1.3,0.1-1.9,0.2c-0.1,0-1,0.2-2.2,0.5c-0.4-2.5-2.6-4.4-5.2-4.4c-2.7,0-4.9,2-5.3,4.6 c-1.5-0.4-2.8-0.7-2.9-0.7c-0.6-0.1-1.3-0.2-1.9-0.2c-3.3,0-6.3,1.6-7.8,4.1c-1.4,2.3-1.6,4.9-0.8,7.6c0.5,1.5,1.3,3,2.3,4.3 c-5.5,2.2-10.6,5.5-15,9.8c-8.4,8.3-13,19.4-13,31.2c0,11.8,4.6,22.9,13,31.3c8.4,8.4,19.5,12.9,31.3,12.9 c11.8,0,22.9-4.6,31.2-12.9c8.3-8.4,12.9-19.5,12.9-31.3C181,71.9,176.4,60.8,168.1,52.5 M135.5,27.8l1.1,0l-0.2-1h1.1l-0.2,1 l1.1,0v1.1l-1.1,0l0.2,1H137h-0.6l0.2-1l-1.1,0V27.8z M136.8,124.1c-22.3,0-40.4-18.1-40.4-40.4c0-18.8,12.9-34.6,30.3-39.1l0-0.2 c-1.4-1.2-3.7-3.6-4.5-6.3c-0.6-1.8-0.4-3.5,0.5-5c1.3-2.2,4.3-2.9,6.4-2.5c0.2,0,0.4,0.1,0.7,0.2c0.6-0.2,1.3-0.3,2-0.3 c0.5,0,0.9,0,1.3,0.1c0.6,0.1,1.6,0.5,2.5,0.8c0.1-0.5,0.5-1,1.1-1c0.5,0,1,0.4,1.1,1c0.8-0.3,1.9-0.7,2.5-0.8 c0.4-0.1,0.9-0.1,1.3-0.1c0.7,0,1.4,0.1,2,0.3c0.2-0.1,0.5-0.1,0.7-0.2c2.2-0.5,5.1,0.2,6.4,2.5c0.9,1.5,1.1,3.2,0.5,5 c-0.8,2.6-4.5,6.3-4.5,6.3l0,0.2c17.4,4.5,30.3,20.3,30.3,39.1C177.1,106,159.1,124.1,136.8,124.1"></path> </g> <g> <path class="st0" d="M137.9,39.7c0-0.6-0.5-1.1-1.1-1.1c-0.7,0-1.2,0.5-1.2,1.1c0,0.7,0.5,1.1,1.2,1.1 C137.4,40.8,137.9,40.3,137.9,39.7"></path> </g> <g> <path class="st0" d="M142.1,34.6c1.5,2.5-0.3,5.4-2.1,7.4c0.8,0.1,1.7,0.2,2.5,0.3c1.9-1.9,4.5-5.3,2.8-8.1c-0.6-1-2-1.7-3.5-1.7 c-0.3,0-0.7,0-1,0.1c-0.3,0.1-0.8,0.2-1.4,0.4C140.6,33.1,141.6,33.7,142.1,34.6"></path> </g> <g> <path class="st0" d="M144,51.5c-0.2,0.1-0.3,0.3-0.7,0.3l-0.1,0.3l0.5,0.1l-0.5,2.3l0.5,0.1l0.7-3L144,51.5z"></path> </g> <g> <path class="st0" d="M135.1,52.2c0.2-0.2,0.3-0.4,0.3-0.7c0-0.6-0.5-0.8-1-0.8c-0.5,0-0.9,0.3-0.9,0.9c0,0.3,0.2,0.5,0.4,0.6 c-0.3,0.1-0.4,0.4-0.4,0.8c0.1,0.6,0.5,0.9,1.1,0.8c0.6,0,1-0.4,1-1C135.6,52.6,135.5,52.3,135.1,52.2 M134.5,51.2 c0.2,0,0.4,0.1,0.4,0.4c0,0.2-0.2,0.4-0.4,0.4c-0.2,0-0.4-0.1-0.4-0.4C134.1,51.4,134.3,51.2,134.5,51.2 M134.7,53.4 c-0.3,0-0.5-0.1-0.5-0.4c0-0.3,0.1-0.5,0.4-0.5c0.3,0,0.5,0.1,0.5,0.4C135.1,53.2,135,53.4,134.7,53.4"></path> </g> <g> <path class="st0" d="M129.9,51.4c-0.1,0.2-0.1,0.4-0.6,0.6l0.1,0.3l0.5-0.1l0.5,2.3l0.5-0.1l-0.7-3L129.9,51.4z"></path> </g> <g> <path class="st0" d="M139.4,50.8c-0.7-0.1-1,0.4-1.1,1c0,0.5,0.2,0.9,0.7,1c0.2,0,0.5-0.1,0.7-0.2l0,0.3c0,0.5-0.2,0.6-0.5,0.6 c-0.2,0-0.4-0.2-0.3-0.4l-0.6,0c0,0.6,0.4,0.9,0.9,0.9c0.7,0.1,1-0.3,1.1-1l0.1-1C140.4,51.2,140,50.8,139.4,50.8 M139.8,51.9 l0,0.2c-0.2,0.1-0.3,0.2-0.5,0.2c-0.3,0-0.4-0.2-0.4-0.5c0-0.3,0.2-0.5,0.5-0.5C139.6,51.3,139.8,51.4,139.8,51.9"></path> </g> <g> <path class="st0" d="M146.3,116.7l0.3,1l0.9-0.3l0.1,0.5c0.2,0.7,0,1.2-0.6,1.3c-0.2,0-0.3,0.1-0.4,0.1c-0.4,0-0.7-0.3-0.9-0.9 l-0.8-2.9c-0.2-0.7,0-1.2,0.7-1.4c0.6-0.2,1,0.1,1.3,0.9l1.2-0.3c-0.4-1.2-1.1-1.8-2-1.8c-0.2,0-0.5,0-0.8,0.1 c-1.4,0.4-1.9,1.4-1.5,3l0.7,2.5c0.4,1.5,1.4,2.1,2.8,1.7c0.4-0.2,0.7-0.5,1-1l0.1-0.1l0.4,0.6l0.6-0.2l-1-3.5L146.3,116.7z"></path> </g> <g> <path class="st0" d="M104.8,99.1l-0.5-1.2l-0.4,0.2c-0.3,0.1-0.5,0.1-0.6,0.1c-0.5,0-0.7-0.4-0.8-0.6c-0.1-0.3-0.1-0.6,0-0.8 c0.1-0.2,0.3-0.4,0.7-0.6l2.8-1.1c0.2-0.1,0.4-0.1,0.6-0.1c0.5,0,0.7,0.4,0.8,0.6c0.1,0.3,0.1,0.6,0,0.8c-0.1,0.2-0.3,0.4-0.7,0.6 l-0.1,0.1l0.5,1.2c0.8-0.3,1.2-0.7,1.4-1.3c0.2-0.5,0.1-1.1-0.1-1.7c-0.4-1-1-1.5-1.8-1.5c-0.4,0-0.8,0.1-1.2,0.3l-2.5,1 c-0.8,0.3-1.3,0.8-1.5,1.3c-0.2,0.5-0.1,1,0.1,1.7c0.6,1.4,1.6,1.8,3.1,1.2L104.8,99.1z"></path> </g> <g> <polygon class="st0" points="110.8,99.9 110.1,98.9 104,102.8 105.9,105.8 106.8,105.2 105.5,103.3 "></polygon> </g> <g> <path class="st0" d="M126.5,112.6l-1.8-0.6l-2.4,6.9l1.9,0.6c0.4,0.1,0.8,0.2,1.2,0.2c0.9,0,1.5-0.5,1.8-1.4 c0.3-0.9,0.1-1.3-0.4-2l-0.1-0.1l0.1,0c0.6-0.1,1.1-0.5,1.3-1.1C128.6,113.7,127.5,113,126.5,112.6 M126,117.9 c-0.2,0.5-0.5,0.8-1,0.8c-0.2,0-0.3,0-0.5-0.1l-0.6-0.2l0.7-2.2l0.5,0.2c0.4,0.1,0.6,0.3,0.8,0.6 C126.1,117.2,126.1,117.5,126,117.9 M126.9,114.9c-0.1,0.4-0.5,0.6-0.9,0.6c-0.1,0-0.3,0-0.4-0.1l-0.6-0.2l0.6-1.8l0.6,0.2 c0.3,0.1,0.6,0.3,0.7,0.5C127,114.3,127,114.6,126.9,114.9"></path> </g> <g> <path class="st0" d="M132.5,114.1l-2-0.3l-1,7.2l1.2,0.2l0.4-3l0.8,0.1l0.8,3.2l1.4,0.2l-1-3.5l0.1,0c0.7-0.2,1.2-0.7,1.3-1.6 c0.1-0.7,0-1.2-0.4-1.7C133.9,114.5,133.3,114.2,132.5,114.1 M133.4,116.4c-0.1,0.8-0.6,1-1,1c-0.1,0-0.2,0-0.2,0l-0.8-0.1 l0.3-2.2l0.8,0.1c0.3,0.1,0.6,0.2,0.7,0.4C133.4,115.7,133.5,116,133.4,116.4"></path> </g> <g> <path class="st0" d="M141.4,114.2l-1.3,0.1l0.4,5.1c0,0.4,0,0.7-0.2,0.9c-0.2,0.2-0.4,0.3-0.8,0.3c-0.7,0-1.1-0.3-1.2-1.1 l-0.4-5.1l-1.2,0.1l0.4,5.1c0.1,1.4,0.8,2.1,2.2,2.1h0.3c1.1-0.1,2.3-0.6,2.2-2.4L141.4,114.2z"></path> </g> <g> <path class="st0" d="M152.7,114.2l0.5,0.9l0.9-0.5l0.2,0.5c0.2,0.3,0.2,0.6,0.2,0.8c-0.1,0.3-0.2,0.5-0.5,0.6 c-0.6,0.3-1,0.2-1.4-0.5l-1.4-2.7c-0.3-0.7-0.2-1.2,0.4-1.5c0.6-0.3,1-0.1,1.4,0.7l1.1-0.6c-0.5-0.9-1.2-1.4-1.9-1.4 c-0.3,0-0.7,0.1-1.1,0.3c-0.6,0.3-1,0.7-1.2,1.2c-0.2,0.5-0.1,1.2,0.3,2l1.2,2.3c0.7,1.4,1.8,1.8,3.1,1.1c0.4-0.2,0.7-0.6,0.8-1.2 l0-0.1l0.6,0.5l0.5-0.3l-1.7-3.2L152.7,114.2z"></path> </g> <g> <polygon class="st0" points="166.2,93.1 166,93.7 170.9,97.8 170.9,97.9 170.8,97.9 164.5,97.2 164.3,97.8 171.8,98.6 172.1,98 "></polygon> </g> <g> <polygon class="st0" points="159.4,112.9 158.1,111.3 159.5,110.1 158.9,109.2 157.4,110.4 156.2,108.9 158.1,107.4 157.5,106.5 154.6,108.9 159.1,114.6 162.1,112.2 161.4,111.3 "></polygon> </g> <g> <path class="st0" d="M115.1,105.4l-3.8,3.5c-0.3,0.3-0.6,0.4-0.8,0.4c-0.3,0-0.5-0.1-0.8-0.4c-0.2-0.3-0.3-0.5-0.3-0.8 c0-0.3,0.2-0.5,0.5-0.8l3.7-3.5l-0.8-0.9l-3.8,3.5c-0.6,0.5-0.8,1.1-0.8,1.6c0,0.5,0.3,1.1,0.8,1.6c1,1.1,2.1,1.2,3.2,0.2l3.8-3.5 L115.1,105.4z"></path> </g> <g> <polygon class="st0" points="163.4,99.3 163,99.9 164.4,104.6 164.3,104.7 164.3,104.7 161.2,102.5 160.8,103.1 166.7,107.2 167.1,106.7 165.1,105.3 164.6,103.3 169.2,103.8 169.6,103.2 164.4,102.7 "></polygon> </g> <g> <path class="st0" d="M119,108.7l-1.6-1.1l-4.2,5.9l1.6,1.1c1.3,0.9,2.4,0.8,3.1-0.3c0.5-0.7,0.5-1.3,0.2-2l-0.1-0.1h0.1 c0.7,0,1.2-0.2,1.6-0.7C120.7,110.3,119.8,109.3,119,108.7 M117,113.6c-0.2,0.3-0.6,0.5-0.9,0.5c-0.2,0-0.5-0.1-0.8-0.3l-0.6-0.4 l1.3-1.9l0.5,0.3c0.3,0.2,0.5,0.5,0.6,0.8C117.3,112.9,117.2,113.3,117,113.6 M118.7,110.9c-0.2,0.3-0.4,0.4-0.7,0.4 c-0.2,0-0.5-0.1-0.7-0.3l-0.5-0.3l1.1-1.6l0.5,0.4C118.9,109.9,119,110.4,118.7,110.9"></path> </g> <g> <path class="st0" d="M171.1,87.6c1.3-0.3,3-2,3-3.8C172.4,84.3,171.1,86.4,171.1,87.6"></path> </g> <g> <path class="st0" d="M170.5,68.2c-1.3,1.3-1.5,3.7-0.9,4.8C170.6,72.2,171.3,69.9,170.5,68.2"></path> </g> <g> <path class="st0" d="M171.4,80.1c1.2-0.6,2.3-2.8,1.8-4.5C171.6,76.6,171,78.9,171.4,80.1"></path> </g> <g> <path class="st0" d="M168.5,65.1c-1.1,1.4-0.8,3.9,0,4.9C169.3,69,169.5,66.6,168.5,65.1"></path> </g> <g> <path class="st0" d="M171.8,83.8c1.2-0.5,2.5-2.6,2.2-4.4C172.3,80.3,171.5,82.6,171.8,83.8"></path> </g> <g> <path class="st0" d="M169,73.1c-0.5-1.3-2.5-2.6-4.3-2.4C165.5,72.4,167.8,73.3,169,73.1"></path> </g> <g> <path class="st0" d="M164.7,64.2c-0.7-1.1-3-2.1-4.7-1.5C161.1,64.2,163.5,64.7,164.7,64.2"></path> </g> <g> <path class="st0" d="M167.9,70.3c-0.6-1.2-2.7-2.3-4.5-2C164.3,69.9,166.7,70.6,167.9,70.3"></path> </g> <g> <path class="st0" d="M166.3,67.1c-0.7-1.1-2.9-2.1-4.7-1.5C162.7,67.1,165.1,67.6,166.3,67.1"></path> </g> <g> <path class="st0" d="M164.6,58.9c-1,1.5-0.6,3.9,0.3,4.9C165.6,62.7,165.7,60.2,164.6,58.9"></path> </g> <g> <path class="st0" d="M159.7,53.7c-0.8,1.7-0.2,4,0.8,4.8C161.1,57.4,161,55,159.7,53.7"></path> </g> <g> <path class="st0" d="M162.1,56.1c-0.9,1.6-0.3,4,0.6,4.9C163.4,59.9,163.4,57.4,162.1,56.1"></path> </g> <g> <path class="st0" d="M166.6,61.9c-1.1,1.5-0.8,3.9,0,4.9C167.5,65.8,167.7,63.4,166.6,61.9"></path> </g> <g> <path class="st0" d="M170.6,76.6c1.1-0.8,2-3,1.3-4.7C170.5,73,170.1,75.4,170.6,76.6"></path> </g> <g> <path class="st0" d="M166.3,73.5c0.5,1.7,2.5,3,3.8,3.1C169.8,75.3,168.1,73.6,166.3,73.5"></path> </g> <g> <path class="st0" d="M158.3,56.3c0.4-1.3-0.2-3.6-1.8-4.6C156.1,53.5,157.2,55.6,158.3,56.3"></path> </g> <g> <path class="st0" d="M160,58.9c-0.9-1-3.2-1.6-4.9-0.8C156.4,59.4,158.9,59.6,160,58.9"></path> </g> <g> <path class="st0" d="M103.4,73.1c0.6-1.1,0.5-3.5-0.9-4.8C101.7,69.9,102.3,72.2,103.4,73.1"></path> </g> <g> <path class="st0" d="M101.6,80.1c0.4-1.2-0.3-3.6-1.8-4.5C99.3,77.3,100.4,79.5,101.6,80.1"></path> </g> <g> <path class="st0" d="M104.5,65.1c-1.1,1.5-0.8,3.9,0,4.9C105.3,69,105.6,66.5,104.5,65.1"></path> </g> <g> <path class="st0" d="M101.2,83.8c0.3-1.3-0.6-3.5-2.2-4.4C98.7,81.2,100,83.3,101.2,83.8"></path> </g> <g> <path class="st0" d="M104,73.1c1.3,0.2,3.5-0.7,4.3-2.4C106.4,70.5,104.4,71.8,104,73.1"></path> </g> <g> <path class="st0" d="M108.3,64.2c1.2,0.5,3.6,0,4.7-1.5C111.3,62.2,109,63.1,108.3,64.2"></path> </g> <g> <path class="st0" d="M105.1,70.3c1.2,0.3,3.6-0.4,4.5-2C107.8,67.9,105.7,69.1,105.1,70.3"></path> </g> <g> <path class="st0" d="M106.7,67.1c1.2,0.4,3.6-0.1,4.7-1.5C109.6,65,107.4,66,106.7,67.1"></path> </g> <g> <path class="st0" d="M108.4,58.9c-1.1,1.4-1.1,3.8-0.3,4.9C109,62.8,109.4,60.4,108.4,58.9"></path> </g> <g> <path class="st0" d="M113.3,53.7c-1.3,1.3-1.5,3.7-0.8,4.8C113.5,57.7,114.2,55.3,113.3,53.7"></path> </g> <g> <path class="st0" d="M110.8,56.1c-1.2,1.3-1.3,3.8-0.6,4.9C111.2,60.1,111.7,57.7,110.8,56.1"></path> </g> <g> <path class="st0" d="M106.3,61.9c-1.1,1.5-0.9,3.9,0,4.9C107.1,65.8,107.4,63.4,106.3,61.9"></path> </g> <g> <path class="st0" d="M102.4,76.6c0.5-1.2,0.1-3.6-1.3-4.7C100.4,73.6,101.3,75.8,102.4,76.6"></path> </g> <g> <path class="st0" d="M102.9,76.6c1.3,0,3.3-1.3,3.8-3.1C104.9,73.6,103.1,75.3,102.9,76.6"></path> </g> <g> <path class="st0" d="M116.4,51.7c-1.5,1-2.2,3.3-1.8,4.6C115.8,55.6,116.9,53.5,116.4,51.7"></path> </g> <g> <path class="st0" d="M116.6,55c1.3,0.1,3.5-1,4.1-2.7C118.9,52.2,117,53.7,116.6,55"></path> </g> <g> <path class="st0" d="M113,58.9c1.1,0.6,3.6,0.5,4.9-0.8C116.2,57.3,113.9,57.9,113,58.9"></path> </g> <g> <path class="st0" d="M114.9,56.7c1.1,0.6,3.6,0.5,4.9-0.8C118.1,55.1,115.7,55.7,114.9,56.7"></path> </g> <g> <path class="st0" d="M110.6,61.5c1.1,0.6,3.6,0.3,4.8-1.1C113.8,59.7,111.4,60.5,110.6,61.5"></path> </g> <g> <path class="st0" d="M101.8,83.7c1.2-0.3,2.9-2.1,3-3.9C103.1,80.4,101.8,82.4,101.8,83.7"></path> </g> <g> <path class="st0" d="M102.1,80.1c1.3-0.2,3.2-1.7,3.5-3.5C103.7,76.9,102.2,78.7,102.1,80.1"></path> </g> <g> <path class="st0" d="M99.1,87.7c0.3,1.8,2.1,3.4,3.4,3.5C102.4,89.9,100.9,88,99.1,87.7"></path> </g> <g> <path class="st0" d="M101.8,87.6c0-1.3-1.3-3.3-3-3.8C98.9,85.6,100.5,87.4,101.8,87.6"></path> </g> <g> <path class="st0" d="M102.3,87.4c1.2-0.4,2.8-2.3,2.7-4.1C103.4,84,102.2,86.1,102.3,87.4"></path> </g> <g> <path class="st0" d="M102.9,91c1.2-0.5,2.5-2.6,2.2-4.4C103.6,87.4,102.7,89.7,102.9,91"></path> </g> <g> <path class="st0" d="M156.4,55c-0.4-1.3-2.3-2.8-4.1-2.7C152.9,54,155.2,55.1,156.4,55"></path> </g> <g> <path class="st0" d="M158.1,56.7c-0.9-1-3.2-1.6-4.9-0.8C154.5,57.2,157,57.4,158.1,56.7"></path> </g> <g> <path class="st0" d="M162.4,61.5c-0.8-1.1-3.1-1.8-4.8-1.1C158.8,61.8,161.2,62.1,162.4,61.5"></path> </g> <g> <path class="st0" d="M168.2,79.9c0,1.8,1.7,3.6,3,3.9C171.2,82.4,169.9,80.4,168.2,79.9"></path> </g> <g> <path class="st0" d="M170.9,80.1c-0.1-1.4-1.7-3.2-3.5-3.5C167.7,78.4,169.6,79.9,170.9,80.1"></path> </g> <g> <path class="st0" d="M170.5,91.2c1.3-0.1,3.2-1.7,3.4-3.5C172.1,88,170.6,89.9,170.5,91.2"></path> </g> <g> <path class="st0" d="M167.9,83.4c-0.1,1.8,1.5,3.7,2.7,4.1C170.8,86.1,169.6,84,167.9,83.4"></path> </g> <g> <path class="st0" d="M167.8,86.6c-0.3,1.8,1.1,3.8,2.2,4.4C170.3,89.7,169.4,87.4,167.8,86.6"></path> </g> <g> <path class="st0" d="M136.8,47.5c-4.3,0-9.3,0.6-8.6,1c0.7,0.3,3.4,0.8,8.6,0.8c5.2,0,7.9-0.4,8.6-0.8 C146,48.1,141.1,47.5,136.8,47.5"></path> </g> <g> <path class="st0" d="M136.8,45.1c-0.4,0-0.8,0.3-0.8,0.8c0,0.4,0.4,0.8,0.8,0.8c0.4,0,0.7-0.3,0.7-0.8 C137.6,45.5,137.2,45.1,136.8,45.1"></path> </g> <g> <path class="st0" d="M144.7,45.9c-0.4,0-0.8,0.3-0.8,0.8c0,0.4,0.4,0.8,0.8,0.8c0.4,0,0.7-0.3,0.7-0.8 C145.5,46.2,145.1,45.9,144.7,45.9"></path> </g> <g> <path class="st0" d="M128.9,45.9c-0.4,0-0.8,0.3-0.8,0.8c0,0.4,0.4,0.8,0.8,0.8c0.4,0,0.7-0.3,0.7-0.8 C129.7,46.2,129.3,45.9,128.9,45.9"></path> </g> <g> <path class="st0" d="M140.6,45.6c-0.3,0-0.5,0.2-0.5,0.5c0,0.3,0.2,0.5,0.5,0.5c0.3,0,0.5-0.2,0.5-0.5 C141.1,45.8,140.9,45.6,140.6,45.6"></path> </g> <g> <path class="st0" d="M133,45.6c-0.3,0-0.5,0.2-0.5,0.5c0,0.3,0.2,0.5,0.5,0.5c0.3,0,0.5-0.2,0.5-0.5 C133.5,45.8,133.3,45.6,133,45.6"></path> </g> <g> <path class="st0" d="M126.8,44.7l0.1,1.1c3.2-0.9,6.5-1.4,9.9-1.4c3.4,0,6.7,0.5,9.9,1.4l0.1-1.1c-3.2-0.9-6.5-1.4-10-1.4 C133.4,43.4,130,43.8,126.8,44.7"></path> </g> <g> <path class="st0" d="M164.8,83.7c0-15.6-12.6-28.2-28.2-28.2c-15.6,0-28.3,12.6-28.3,28.2c0,15.6,12.6,28.2,28.3,28.2 C152.1,112,164.8,99.3,164.8,83.7 M136.5,108.5c-13.7,0-24.8-11.1-24.8-24.8c0-13.6,11.1-24.7,24.8-24.7 c13.6,0,24.7,11.1,24.7,24.7C161.3,97.4,150.2,108.5,136.5,108.5"></path> </g> <g> <path class="st0" d="M159.7,78c0,0,0,0.1,0,0.1C159.7,78.1,159.7,78.1,159.7,78z"></path> <path class="st0" d="M160.3,83.4c0,0.2,0,0.3,0,0.5C160.3,83.7,160.3,83.6,160.3,83.4z"></path> <path class="st0" d="M136.9,59.9c-0.2,0-0.4,0-0.6,0C136.5,59.9,136.7,59.9,136.9,59.9z"></path> <path class="st0" d="M159.9,79c0,0.1,0,0.2,0.1,0.3C159.9,79.2,159.9,79.1,159.9,79z"></path> <path class="st0" d="M160.2,81.2c0,0.1,0,0.2,0,0.4C160.2,81.5,160.2,81.3,160.2,81.2z"></path> <path class="st0" d="M160.3,82.5c0,0.1,0,0.3,0,0.4C160.3,82.7,160.3,82.6,160.3,82.5z"></path> <path class="st0" d="M160.1,80.2c0,0.1,0,0.2,0,0.3C160.1,80.4,160.1,80.3,160.1,80.2z"></path> <path class="st0" d="M137.4,59.9c0.1,0,0.3,0,0.4,0C137.7,59.9,137.5,59.9,137.4,59.9z"></path> <path class="st0" d="M140.9,60.3c0.1,0,0.2,0,0.3,0.1C141.1,60.4,141,60.3,140.9,60.3z"></path> <path class="st0" d="M135,60c0.2,0,0.4,0,0.6,0C135.4,59.9,135.2,60,135,60z"></path> <path class="st0" d="M139.7,60.1c0.1,0,0.2,0,0.3,0C139.9,60.2,139.8,60.1,139.7,60.1z"></path> <path class="st0" d="M138.7,60c0.1,0,0.3,0,0.4,0C138.9,60,138.8,60,138.7,60z"></path> <path class="st0" d="M152.6,66.1c-0.1-0.1-0.3-0.3-0.4-0.4C152.3,65.9,152.4,66,152.6,66.1z"></path> <path class="st0" d="M159.7,78c-0.7-2.8-1.9-5.5-3.6-8l-33.2,33.2c2.5,1.7,5.2,2.9,8,3.6L159.7,78z"></path> <path class="st0" d="M121.3,102c0.2,0.2,0.4,0.4,0.7,0.5C121.7,102.4,121.5,102.2,121.3,102z"></path> <path class="st0" d="M122.1,102.7c0.3,0.2,0.5,0.4,0.8,0.6C122.6,103.1,122.3,102.9,122.1,102.7z"></path> <path class="st0" d="M156,70.1c-0.2-0.3-0.4-0.5-0.6-0.8C155.7,69.5,155.8,69.8,156,70.1z"></path> <path class="st0" d="M117.7,98.3c0.2,0.2,0.4,0.5,0.5,0.7C118,98.8,117.9,98.5,117.7,98.3z"></path> <path class="st0" d="M118.5,99.3c0.1,0.2,0.3,0.3,0.4,0.5C118.8,99.6,118.6,99.4,118.5,99.3z"></path> <path class="st0" d="M142,60.6c0.1,0,0.1,0,0.2,0l-28.8,28.8c0-0.1,0-0.1,0-0.2c0.8,3.2,2.2,6.3,4.3,9c-0.2-0.3-0.4-0.5-0.6-0.8 l33.2-33.2C147.7,62.5,144.9,61.2,142,60.6z"></path> <path class="st0" d="M120.5,101.3c0.2,0.1,0.3,0.3,0.5,0.4C120.8,101.6,120.7,101.5,120.5,101.3z"></path> <path class="st0" d="M155.4,69.2c-0.2-0.2-0.4-0.5-0.5-0.7C155,68.7,155.2,68.9,155.4,69.2z"></path> <path class="st0" d="M133.4,60.1c0.4-0.1,0.9-0.1,1.3-0.1C134.3,60,133.9,60.1,133.4,60.1z"></path> <path class="st0" d="M154.6,68.2c-0.1-0.2-0.3-0.3-0.4-0.5C154.3,67.9,154.4,68,154.6,68.2z"></path> <path class="st0" d="M151,64.8c-0.2-0.2-0.5-0.4-0.7-0.5C150.5,64.4,150.7,64.6,151,64.8z"></path> <path class="st0" d="M151.8,65.4c-0.2-0.2-0.4-0.3-0.6-0.5C151.3,65.1,151.6,65.3,151.8,65.4z"></path> <path class="st0" d="M130.5,60.7c0.2-0.1,0.5-0.1,0.7-0.2C131,60.6,130.7,60.6,130.5,60.7z"></path> <path class="st0" d="M138,107.5c-0.2,0-0.3,0-0.5,0C137.6,107.5,137.8,107.5,138,107.5z"></path> <path class="st0" d="M141.7,107c-0.4,0.1-0.8,0.2-1.2,0.2C140.9,107.1,141.3,107.1,141.7,107z"></path> <path class="st0" d="M140.3,107.3c-0.2,0-0.4,0.1-0.6,0.1C139.9,107.3,140.1,107.3,140.3,107.3z"></path> <path class="st0" d="M139.4,107.4c-0.3,0-0.6,0.1-1,0.1C138.7,107.4,139.1,107.4,139.4,107.4z"></path> <path class="st0" d="M134.4,107.5c-0.1,0-0.2,0-0.3,0C134.2,107.4,134.3,107.4,134.4,107.5z"></path> <path class="st0" d="M135.6,107.5c-0.1,0-0.2,0-0.4,0C135.4,107.5,135.5,107.5,135.6,107.5z"></path> <path class="st0" d="M160.1,86.8c0.1-0.4,0.1-0.9,0.1-1.3C160.2,86,160.2,86.4,160.1,86.8z"></path> <path class="st0" d="M133.3,107.3c-0.1,0-0.2,0-0.2,0C133.1,107.3,133.2,107.3,133.3,107.3z"></path> <path class="st0" d="M160,87.5c0-0.2,0.1-0.5,0.1-0.7C160.1,87.1,160.1,87.3,160,87.5z"></path> <path class="st0" d="M159.6,89.8l-17,17c4-1,7.7-3.1,10.8-6.2c3.6-3.6,5.9-8.2,6.6-12.9C159.9,88.4,159.8,89.1,159.6,89.8z"></path> <path class="st0" d="M142.5,106.8c-0.2,0.1-0.5,0.1-0.7,0.2C142.1,106.9,142.3,106.8,142.5,106.8z"></path> <path class="st0" d="M160.3,85.2c0-0.2,0-0.4,0-0.6C160.3,84.9,160.3,85,160.3,85.2z"></path> <path class="st0" d="M112.9,86.9c0,0.1,0,0.2,0,0.3C112.9,87.1,112.9,87,112.9,86.9z"></path> <path class="st0" d="M112.7,83c0,0.4,0,0.8,0,1.1C112.7,83.7,112.7,83.3,112.7,83z"></path> <path class="st0" d="M113.1,88.1c0,0.1,0,0.2,0.1,0.3C113.2,88.4,113.1,88.2,113.1,88.1z"></path> <path class="st0" d="M112.7,82.8c0-0.2,0-0.4,0-0.6C112.7,82.4,112.7,82.6,112.7,82.8z"></path> <path class="st0" d="M112.8,81.9c0.1-0.7,0.1-1.4,0.2-2C112.9,80.6,112.8,81.3,112.8,81.9z"></path> <path class="st0" d="M113.5,77.7l17-17c-4,1-7.7,3.1-10.8,6.2c-3.7,3.7-5.9,8.2-6.7,12.9C113.1,79.1,113.3,78.4,113.5,77.7z"></path> <path class="st0" d="M131.2,60.5c0.4-0.1,0.9-0.2,1.4-0.3C132.1,60.3,131.7,60.4,131.2,60.5z"></path> <path class="st0" d="M112.8,85.8c0,0.1,0,0.3,0,0.4C112.8,86.1,112.8,86,112.8,85.8z"></path> <path class="st0" d="M136.2,107.5c0.1,0,0.3,0,0.4,0C136.5,107.6,136.4,107.5,136.2,107.5z"></path> <path class="st0" d="M131,106.9c0,0-0.1,0-0.1,0C130.9,106.9,130.9,106.9,131,106.9z"></path> <path class="st0" d="M112.7,84.5c0,0.2,0,0.3,0,0.5C112.7,84.9,112.7,84.7,112.7,84.5z"></path> <path class="st0" d="M132.7,60.2c0.2,0,0.5-0.1,0.7-0.1C133.2,60.1,132.9,60.2,132.7,60.2z"></path> <path class="st0" d="M132.1,107.1c-0.1,0-0.2,0-0.3-0.1C131.9,107.1,132,107.1,132.1,107.1z"></path> </g> </g> </svg> 