<?xml version="1.0" encoding="UTF-8"?> <!-- Generator: Adobe Illustrator 24.0.0, SVG Export Plug-In . SVG Version: 6.00 Build 0) --> <svg xmlns="http://www.w3.org/2000/svg" xmlns:xlink="http://www.w3.org/1999/xlink" id="Calque_1" x="0px" y="0px" viewBox="0 0 274 150" style="enable-background:new 0 0 274 150;" xml:space="preserve"> <style type="text/css"> .st0{fill:#B3B3B3;} </style> <g> <g> <path class="st0" d="M86.6,104.4l5.5,0c4.3,0,6.3,2.3,6.3,7.1l0,11.6c0,5-1.8,7.3-6.1,7.3l-5.7,0L86.6,104.4z M92.4,126.6 c1.5,0,2-1,2-2.7l0-12.5c0-2.1-1-3.1-3.1-3.1l-0.9,0l0,18.4L92.4,126.6z"></path> <polygon class="st0" points="101.2,104.4 111.3,104.4 111.3,108.2 105,108.2 105,115 109.5,115 109.5,118.8 105,118.8 105,126.6 111.3,126.6 111.3,130.5 101.2,130.5 "></polygon> <polygon class="st0" points="114.3,104.4 118.1,104.4 118.1,126.7 124.1,126.7 124.1,130.5 114.3,130.5 "></polygon> <polygon class="st0" points="130.1,104.4 130.1,115.1 134,115.1 134,104.4 137.9,104.4 137.9,130.5 134,130.5 134,118.8 130.1,118.8 130.1,130.5 126.3,130.5 126.3,104.4 "></polygon> <path class="st0" d="M144.6,104.4l5.1,0l4.1,26l-4,0l-0.8-5.6l-3.9,0l-0.8,5.6l-3.8,0L144.6,104.4z M148.5,121.1l-1.3-10.9l-0.3,0 l-1.4,10.9L148.5,121.1z"></path> <rect x="156" y="104.4" class="st0" width="3.9" height="26"></rect> <polygon class="st0" points="162.9,126.4 169.9,108.5 163.5,108.4 163.5,104.4 174.1,104.4 174.1,108.2 167,126.4 174.1,126.4 174.1,130.5 162.9,130.5 "></polygon> <polygon class="st0" points="176.9,104.4 187,104.4 187,108.2 180.8,108.2 180.8,115 185.3,115 185.3,118.8 180.8,118.8 180.8,126.6 187,126.6 187,130.5 176.9,130.5 "></polygon> </g> <polygon class="st0" points="142.5,98.1 144.1,92.4 149.1,91 161,68 143.7,76.5 129.1,76.5 124.4,85 129.1,92.5 128,98.1 110.2,98.1 111.5,93.1 116.3,90.3 111.9,79.4 101.7,93.1 103,98 87.1,98.1 89.2,91.3 92.3,89.9 99.5,78.5 96.5,68.4 90.8,71.2 99.2,47.1 95.4,41.5 97.5,38.3 103,42.7 106.4,37.2 93.4,37.2 93.5,40 89.9,39.9 90.3,34.4 106.1,34.4 105.4,32 97.1,33.3 94.8,25.7 105.1,25.5 105.8,23.4 119.7,23.2 128.5,20.5 125.6,29.8 128.9,27.1 129.9,51.8 174.2,51.8 174.2,46.3 136.2,46.3 135,34.6 136.2,23.3 181.6,23.3 181.6,35.5 176.2,29 141.4,29 140.8,34.6 141.4,40.4 176.1,40.4 181.6,45 181.6,65 186.9,86.6 183.1,98.1 166.4,98.1 168.6,92.4 174.1,91.2 176.3,86.2 169.8,79.1 160.5,92.1 159.8,98.1 "></polygon> </g> </svg> 