<?xml version="1.0" encoding="UTF-8"?> <!-- Generator: Adobe Illustrator 24.0.0, SVG Export Plug-In . SVG Version: 6.00 Build 0) --> <svg xmlns="http://www.w3.org/2000/svg" xmlns:xlink="http://www.w3.org/1999/xlink" id="Calque_1" x="0px" y="0px" viewBox="0 0 274 150" style="enable-background:new 0 0 274 150;" xml:space="preserve"> <style type="text/css"> .st0{fill-rule:evenodd;clip-rule:evenodd;fill:#B3B3B3;} </style> <g> <path class="st0" d="M123.6,79.1c0-7.5,6.1-13.6,13.6-13.6c7.5,0,13.6,6.1,13.6,13.6c0,7.5-6.1,13.6-13.6,13.6 C129.7,92.7,123.6,86.6,123.6,79.1L123.6,79.1z M137.1,100.5c15.2-1.2,24.9-15.2,19.5-29.5c-5.9-15.5-21.3-13.5-21.3-13.5 c-5.8,0-10.5-4.7-10.5-10.5c0-5.8,5.3-10.5,12.3-12.1c5.6-1.2,27.5,0.3,32.7,26.6c0,0,5.2,21.8-18.8,35.5c0,0-0.4,0.3-0.2,0.5 c0.1,0.2,0.5,0.1,0.5,0.1c14.3-5.7,24.5-19.7,24.5-36c0-21.4-17.3-38.8-38.7-38.8c-21.4,0-38.8,17.3-38.8,38.8 C98.4,83.1,115.7,100.5,137.1,100.5L137.1,100.5L137.1,100.5z"></path> <polygon class="st0" points="71.6,112.4 75.3,112.4 75.4,125.5 79.4,125.5 79.4,127.8 71.7,127.8 71.6,112.4 "></polygon> <path class="st0" d="M83.7,116.8c1.6,0,4.6,1.1,4.6,5.6c0,5-3.4,5.6-4.5,5.6c-1.1,0-4.5-0.8-4.6-5.6 C79.2,117.5,82.7,116.8,83.7,116.8L83.7,116.8z M82.8,122.3c0,2.4,0.3,3.8,1,3.8c0.7,0,1-0.8,1-3.8c0-3-0.5-3.8-1-3.8 C82.9,118.6,82.8,119.9,82.8,122.3L82.8,122.3z"></path> <path class="st0" d="M164.9,116.5c1.6,0,4.6,1.1,4.6,5.6c0,5-3.4,5.6-4.5,5.6c-1.1,0-4.5-0.8-4.6-5.6 C160.4,117.2,163.9,116.5,164.9,116.5L164.9,116.5z M164,122.1c0,2.4,0.3,3.8,1,3.8c0.7,0,1-0.8,1-3.8s-0.5-3.8-1-3.8 C164.1,118.4,164,119.7,164,122.1L164,122.1z"></path> <path class="st0" d="M88.9,114.9l3.2-2.1l0,4l2,0l0,1.8l-1.9,0l0,6.4c0,0,0,0.9,0.4,1c0.7,0.2,1.8-1.2,1.8-1.2l0,2.2 c0,0-0.9,0.9-2.5,0.9c-1.5,0-2.9-1.3-3.1-2.4C88.9,124.9,88.9,114.9,88.9,114.9L88.9,114.9z"></path> <path class="st0" d="M150.1,114.9l3.2-2.1l0,4l2,0l0,1.8l-1.9,0l0,6.4c0,0,0,0.9,0.4,1c0.7,0.2,1.8-1.2,1.8-1.2l0,2.2 c0,0-0.9,0.9-2.5,0.9c-1.5,0-2.9-1.3-3.1-2.4C150,124.8,150.1,114.9,150.1,114.9L150.1,114.9z"></path> <path class="st0" d="M98.7,116.3c1.5,0,3.7,0.1,4.6,4l-4.8,3.6c0,0,0,2.5,1.7,2.1c1.7-0.4,2.7-2.2,3-2.7l0,3c0,0-1.2,1.6-3.6,1.6 c-2.5,0-4.9-2-5-5.8C94.3,117.3,98.3,116.3,98.7,116.3L98.7,116.3z M98.2,121.8l1.7-1.2c-0.2-2-0.3-2.6-1.1-2.5 C97.8,118.2,98.2,121.8,98.2,121.8L98.2,121.8z"></path> <path class="st0" d="M119.7,116.3c1.5,0,3.7,0.1,4.6,4l-4.8,3.6c0,0,0,2.5,1.7,2.1c1.7-0.4,2.7-2.2,3-2.7l0,3c0,0-1.2,1.6-3.6,1.6 c-2.5,0-4.9-2-5-5.8C115.3,117.3,119.4,116.3,119.7,116.3L119.7,116.3z M119.2,121.8l1.7-1.2c-0.2-2-0.3-2.6-1.1-2.5 C118.8,118.2,119.2,121.8,119.2,121.8L119.2,121.8z"></path> <path class="st0" d="M197.4,116c1.5,0,3.7,0.1,4.6,4l-4.8,3.6c0,0,0,2.5,1.7,2.1c1.7-0.4,2.7-2.2,3-2.7l0,3c0,0-1.2,1.6-3.6,1.6 c-2.5,0-4.9-2-5-5.8C193,117,197,116,197.4,116L197.4,116z M196.9,121.4l1.7-1.2c-0.2-2-0.3-2.6-1.1-2.5 C196.5,117.9,196.9,121.4,196.9,121.4L196.9,121.4z"></path> <path class="st0" d="M104,118.4l3.3-2l0.1,1.1c0,0,1.6-1.5,3.2-0.7v3.7c0,0-1.2-1.4-2.4-0.8c-0.7,0.4-0.8,1-0.8,1.5 c0,0.4,0,6.5,0,6.5l-3.4,0L104,118.4L104,118.4z"></path> <path class="st0" d="M113.2,116c1,0,1.8-0.8,1.8-1.9c0-1-0.8-1.9-1.8-1.9c-1,0-1.8,0.8-1.8,1.9C111.4,115.2,112.2,116,113.2,116 L113.2,116z"></path> <polygon class="st0" points="111.5,118.2 114.8,116.3 114.8,127.6 111.6,127.6 111.5,118.2 "></polygon> <path class="st0" d="M158,116c1,0,1.8-0.8,1.8-1.9c0-1-0.8-1.9-1.8-1.9c-1,0-1.8,0.8-1.8,1.9C156.1,115.2,156.9,116,158,116 L158,116z"></path> <polygon class="st0" points="156.3,118.2 159.5,116.3 159.6,127.6 156.4,127.6 156.3,118.2 "></polygon> <polygon class="st0" points="129.7,111.4 133.1,111.3 137.6,119.4 137.5,111.4 139.7,111.3 139.8,127.6 137.8,127.6 132,117.6 132,127.6 129.8,127.6 129.7,111.4 "></polygon> <path class="st0" d="M141.2,120.2l0-2.6c0,0,1.2-1.2,3.8-1.2c2.7,0,3.7,1.4,3.8,2.1c0.2,0.6,0.2,1.3,0.2,2.7c0,1.4,0,5.5,0,5.5 s0.1,0.8,0.5,1.1l-3.5,0l-0.4-0.5c0,0-0.8,0.7-1.9,0.7c-1.1,0-3.3-0.9-3.3-3.7c0-2.8,2.1-3.9,3.5-3.9c1.4,0,1.6,0.2,1.6,0.2l0-1.5 c0,0-0.1-0.6-0.6-0.7C144.3,118.2,142.8,118.5,141.2,120.2L141.2,120.2z M143.8,123.8c0,0.8,0,1.8,0.8,1.8s0.9-1.3,0.9-1.8 c0-1.2-0.2-1.5-0.8-1.6C144,122.2,143.8,123,143.8,123.8L143.8,123.8z"></path> <path class="st0" d="M180.2,120.2l0-2.6c0,0,1.2-1.2,3.8-1.2c2.7,0,3.7,1.4,3.8,2.1c0.2,0.6,0.2,1.3,0.2,2.7c0,1.4,0,5.5,0,5.5 s0.1,0.8,0.5,1.1l-3.5,0l-0.4-0.5c0,0-0.8,0.7-1.9,0.7c-1.1,0-3.3-0.9-3.3-3.7c0-2.8,2.1-3.9,3.5-3.9c1.4,0,1.6,0.2,1.6,0.2l0-1.5 c0,0-0.1-0.6-0.6-0.7C183.3,118.2,181.8,118.4,180.2,120.2L180.2,120.2z M182.8,123.8c0,0.8,0,1.8,0.8,1.8c0.8,0,0.9-1.3,0.9-1.8 c0-1.2-0.2-1.5-0.8-1.6C183,122.2,182.8,123,182.8,123.8L182.8,123.8z"></path> <path class="st0" d="M170.1,118.4l3.4-2.1l0,1.2c0,0,0.6-1.1,2.4-1.1c1.8,0,2.5,1.6,2.5,2.5c0,0.9,0.1,8.7,0.1,8.7l-3.4,0l0-7.3 c0,0,0-1.3-0.8-1.3c-0.8,0-0.8,1.3-0.8,1.3l0,7.2l-3.5,0L170.1,118.4L170.1,118.4z"></path> <polygon class="st0" points="189.3,114.7 192.7,112.6 192.7,127.6 189.3,127.6 189.3,114.7 "></polygon> </g> </svg> 