<?xml version="1.0" encoding="UTF-8"?> <svg xmlns="http://www.w3.org/2000/svg" width="274" height="150" viewBox="0 0 274 150"><g id="logo_standard" transform="translate(-78 -5224)"><rect id="Rectangle_86" data-name="Rectangle 86" width="274" height="150" transform="translate(78 5224)" fill="none"></rect><g id="logo_standard-2" data-name="logo_standard" transform="translate(96 5250.95)"><g id="Groupe_10" data-name="Groupe 10" transform="translate(67.372 19.211)"><path id="Tracé_38" data-name="Tracé 38" d="M143.741,37.993c5.683,0,8.6,3.4,8.6,9.349v1.965h-5.524V46.97c0-2.656-1.062-3.664-2.921-3.664s-2.922,1.008-2.922,3.664c0,7.647,11.42,9.081,11.42,19.7,0,5.948-2.974,9.349-8.711,9.349s-8.71-3.4-8.71-9.349V63.063H140.5v3.983c0,2.656,1.169,3.613,3.028,3.613s3.026-.957,3.026-3.613c0-7.648-11.419-9.081-11.419-19.7C135.136,41.393,138.057,37.993,143.741,37.993Z" transform="translate(-134.978 -37.993)" fill="#b3b3b3"></path><path id="Tracé_39" data-name="Tracé 39" d="M173.81,38.86h18.058v5.311h-6.107V76.037h-5.843V44.171H173.81Z" transform="translate(-154.72 -38.434)" fill="#b3b3b3"></path><path id="Tracé_40" data-name="Tracé 40" d="M230.087,76.037h-5.9l-1.01-6.744h-7.171L215,76.037h-5.364l5.948-37.177h8.551Zm-13.332-11.79h5.63l-2.814-18.8Z" transform="translate(-172.936 -38.434)" fill="#b3b3b3"></path><path id="Tracé_41" data-name="Tracé 41" d="M262.591,49.109V76.037h-5.259V38.86h7.331l6,22.253V38.86h5.2V76.037h-6Z" transform="translate(-197.183 -38.434)" fill="#b3b3b3"></path><path id="Tracé_42" data-name="Tracé 42" d="M305.331,38.86h9.24c5.843,0,8.711,3.241,8.711,9.188v18.8c0,5.948-2.867,9.189-8.711,9.189h-9.24Zm5.842,5.311V70.726h3.291c1.861,0,2.976-.956,2.976-3.612V47.783c0-2.656-1.115-3.612-2.976-3.612Z" transform="translate(-221.586 -38.434)" fill="#b3b3b3"></path><path id="Tracé_43" data-name="Tracé 43" d="M367.537,76.037h-5.9l-1.01-6.744h-7.169l-1.007,6.744h-5.367l5.951-37.177h8.549ZM354.2,64.247h5.631l-2.816-18.8Z" transform="translate(-242.815 -38.434)" fill="#b3b3b3"></path><path id="Tracé_44" data-name="Tracé 44" d="M408.6,76.037c-.319-.955-.53-1.539-.53-4.567V65.627c0-3.451-1.168-4.726-3.824-4.726h-2.018V76.037H396.38V38.86H405.2c6.054,0,8.657,2.814,8.657,8.55v2.922c0,3.825-1.223,6.32-3.824,7.542,2.922,1.221,3.878,4.037,3.878,7.913v5.735a10.956,10.956,0,0,0,.635,4.515Zm-6.373-31.866V55.59h2.283c2.18,0,3.507-.956,3.507-3.931V47.994c0-2.656-.9-3.823-2.976-3.823Z" transform="translate(-267.876 -38.434)" fill="#b3b3b3"></path><path id="Tracé_45" data-name="Tracé 45" d="M441.483,38.86h9.24c5.843,0,8.712,3.241,8.712,9.188v18.8c0,5.948-2.869,9.189-8.712,9.189h-9.24Zm5.842,5.311V70.726h3.291c1.859,0,2.976-.956,2.976-3.612V47.783c0-2.656-1.117-3.612-2.976-3.612Z" transform="translate(-290.806 -38.434)" fill="#b3b3b3"></path><path id="Tracé_46" data-name="Tracé 46" d="M136.94,130h4.395c2.779,0,4.143,1.54,4.143,4.371v8.943c0,2.828-1.364,4.371-4.143,4.371H136.94Zm2.778,2.525v12.633h1.568c.885,0,1.414-.455,1.414-1.718v-9.2c0-1.262-.529-1.718-1.414-1.718Z" transform="translate(-135.975 -84.767)" fill="#b3b3b3"></path><path id="Tracé_47" data-name="Tracé 47" d="M161.657,137.447h3.815v2.528h-3.815v5.178h4.8v2.527h-7.579V130h7.579v2.525h-4.8Z" transform="translate(-147.129 -84.767)" fill="#b3b3b3"></path><path id="Tracé_48" data-name="Tracé 48" d="M186.189,130h2.778v15.158h4.574v2.527h-7.352Z" transform="translate(-161.014 -84.767)" fill="#b3b3b3"></path><path id="Tracé_49" data-name="Tracé 49" d="M205.491,130h2.78v17.685h-2.78Z" transform="translate(-170.827 -84.767)" fill="#b3b3b3"></path><path id="Tracé_50" data-name="Tracé 50" d="M219.161,133.5h3.816v2.528h-3.816v5.179h4.8v2.527h-7.579V126.05h7.579v2.525h-4.8Zm.555-11.267,1.819,2.956h-2.1l-2.729-2.956Z" transform="translate(-176.364 -80.821)" fill="#b3b3b3"></path><path id="Tracé_51" data-name="Tracé 51" d="M240.315,137.618h3.89v5.609c0,2.829-1.414,4.447-4.143,4.447s-4.144-1.618-4.144-4.447v-9.2c0-2.829,1.414-4.446,4.144-4.446s4.143,1.616,4.143,4.446v1.717h-2.627v-1.892c0-1.263-.557-1.745-1.441-1.745s-1.438.482-1.438,1.745V143.4c0,1.264.555,1.718,1.438,1.718s1.441-.453,1.441-1.718v-3.26h-1.262Z" transform="translate(-186.296 -84.558)" fill="#b3b3b3"></path><path id="Tracé_52" data-name="Tracé 52" d="M260.15,137.447h3.816v2.528H260.15v5.178h4.8v2.527h-7.579V130h7.579v2.525h-4.8Z" transform="translate(-197.203 -84.767)" fill="#b3b3b3"></path></g><g id="Groupe_20" data-name="Groupe 20" transform="translate(2 1.05)"><g id="Groupe_14" data-name="Groupe 14"><g id="Groupe_13" data-name="Groupe 13" transform="translate(0 6.573)"><g id="Groupe_11" data-name="Groupe 11" transform="translate(9.058)"><path id="Tracé_53" data-name="Tracé 53" d="M57.661,49.3c-.7-6.3-1.566-11.9-1.707-12.8H50.769a28.5,28.5,0,0,0-22.352,0H23.1c-.141.9-1,6.5-1.707,12.8-1.01,9.057-1.233,15.434-.648,18.445a34.411,34.411,0,0,0,4.877,12.611c3.169,4.811,7.719,8.69,13.905,11.862,6.188-3.171,10.736-7.051,13.908-11.862a34.442,34.442,0,0,0,4.876-12.611C58.9,64.733,58.675,58.355,57.661,49.3ZM33.936,36.5a27.084,27.084,0,0,1,11.313,0Z" transform="translate(-20.426 -24.485)" fill="#b3b3b3"></path><path id="Tracé_54" data-name="Tracé 54" d="M28.66,19.092c.127.195,3.023,3.483,5.072,5.793a29.645,29.645,0,0,1,19.767,0c2.047-2.312,4.944-5.6,5.07-5.787a1.443,1.443,0,0,1,.108-.158c.1-.127.242-.312.213-.467a.417.417,0,0,0-.2-.265c-.262-.161-.881.4-1.282.768-.1.091-.2.182-.291.261-.061.055-.142.129-.227.211A6.745,6.745,0,0,1,54.3,21.113a10.3,10.3,0,0,1-5.056.223c-2.1-.529-4.74-2.126-5.423-6.708,0,0-.031-.207-.206-.207s-.2.205-.2.205c-.682,4.584-3.326,6.181-5.424,6.71a10.319,10.319,0,0,1-5.059-.223,6.708,6.708,0,0,1-2.588-1.664l-.231-.211c-.09-.079-.188-.17-.29-.261-.408-.369-1.019-.929-1.273-.775a.426.426,0,0,0-.2.271c-.027.154.11.339.212.467A1.465,1.465,0,0,1,28.66,19.092Z" transform="translate(-24.45 -14.421)" fill="#b3b3b3"></path></g><g id="Groupe_12" data-name="Groupe 12" transform="translate(0 22.42)"><path id="Tracé_55" data-name="Tracé 55" d="M13.49,67.817l-.108-.424c-.269-1.056-.957-4.689,1.5-7.092l.278-.272.119.371a7.146,7.146,0,0,1-1.492,7.1Z" transform="translate(-7.636 -60.028)" fill="#b3b3b3"></path><path id="Tracé_56" data-name="Tracé 56" d="M102.423,67.818l-.3-.317a7.078,7.078,0,0,1-1.488-7.1l.12-.368.276.272c2.455,2.4,1.768,6.036,1.5,7.091Z" transform="translate(-51.953 -60.03)" fill="#b3b3b3"></path><path id="Tracé_57" data-name="Tracé 57" d="M9.666,80.045l-.321-.222c-.588-.406-1.9-1.651-1.4-4.447l.07-.385.312.235c.546.41,1.773,1.663,1.389,4.431Z" transform="translate(-4.968 -67.635)" fill="#b3b3b3"></path><path id="Tracé_58" data-name="Tracé 58" d="M106.878,80.042l-.053-.384c-.384-2.764.845-4.019,1.39-4.431l.314-.235.069.385c.505,2.8-.812,4.043-1.4,4.447Z" transform="translate(-55.256 -67.635)" fill="#b3b3b3"></path><path id="Tracé_59" data-name="Tracé 59" d="M13.775,82.666l-.111-.59a6.474,6.474,0,0,1,1.311-5.293l.327-.394.1.5A7.25,7.25,0,0,1,14.1,82.164Z" transform="translate(-7.873 -68.346)" fill="#b3b3b3"></path><path id="Tracé_60" data-name="Tracé 60" d="M102.791,82.665l-.328-.5a7.3,7.3,0,0,1-1.3-5.27l.095-.508.327.4a6.49,6.49,0,0,1,1.316,5.292Z" transform="translate(-52.372 -68.342)" fill="#b3b3b3"></path><path id="Tracé_61" data-name="Tracé 61" d="M7.191,89.031l-.347-.125c-.685-.248-2.909-1.358-2.736-5.281l.019-.4.345.2c.73.428,2.454,1.789,2.693,5.237Z" transform="translate(-3.067 -71.822)" fill="#b3b3b3"></path><path id="Tracé_62" data-name="Tracé 62" d="M108.177,89.031l.025-.368c.256-3.56,2.128-4.907,2.694-5.237l.344-.2.017.4c.175,3.919-2.048,5.033-2.732,5.281Z" transform="translate(-55.981 -71.823)" fill="#b3b3b3"></path><path id="Tracé_63" data-name="Tracé 63" d="M12.356,95.713l-.077-.41a6.325,6.325,0,0,1,1.52-5.377l.306-.335.106.441a5.46,5.46,0,0,1-1.537,5.41Z" transform="translate(-7.175 -75.058)" fill="#b3b3b3"></path><path id="Tracé_64" data-name="Tracé 64" d="M103.94,95.717l-.32-.275a5.463,5.463,0,0,1-1.535-5.408l.105-.443.307.335a6.286,6.286,0,0,1,1.516,5.375Z" transform="translate(-52.797 -75.058)" fill="#b3b3b3"></path><path id="Tracé_65" data-name="Tracé 65" d="M5.96,102.39l-.375-.186c-.881-.435-3.743-2.123-3.578-5.554l.014-.3.289.078c.778.21,3.34,1.231,3.622,5.544Z" transform="translate(-2 -78.495)" fill="#b3b3b3"></path><path id="Tracé_66" data-name="Tracé 66" d="M108.507,102.39l.029-.417c.288-4.314,2.846-5.334,3.624-5.544l.288-.078.015.3c.164,3.428-2.7,5.118-3.579,5.554Z" transform="translate(-56.149 -78.495)" fill="#b3b3b3"></path><path id="Tracé_67" data-name="Tracé 67" d="M13.955,108.092l-.117-.447a6.448,6.448,0,0,1,.931-5.654l.236-.287.165.333a5.1,5.1,0,0,1-.916,5.7Z" transform="translate(-7.882 -81.216)" fill="#b3b3b3"></path><path id="Tracé_68" data-name="Tracé 68" d="M102.444,108.093l-.3-.351a5.091,5.091,0,0,1-.914-5.7l.166-.331.235.285a6.457,6.457,0,0,1,.929,5.654Z" transform="translate(-52.198 -81.218)" fill="#b3b3b3"></path><path id="Tracé_69" data-name="Tracé 69" d="M8.785,116.567l-.452-.164c-.978-.35-4.161-1.748-4.084-5.031l.006-.266.264.035c.635.079,2.811.672,4.124,4.965Z" transform="translate(-3.143 -85.996)" fill="#b3b3b3"></path><path id="Tracé_70" data-name="Tracé 70" d="M105.087,116.559l.139-.458c1.314-4.278,3.492-4.878,4.126-4.96l.265-.035.006.267c.075,3.295-3.109,4.681-4.086,5.028Z" transform="translate(-54.41 -85.996)" fill="#b3b3b3"></path><path id="Tracé_71" data-name="Tracé 71" d="M18.054,122.033l-.232-.342a6.144,6.144,0,0,1-.271-6.066l.148-.331.248.266c.507.541,2.028,2.584.29,6.1Z" transform="translate(-9.575 -88.125)" fill="#b3b3b3"></path><path id="Tracé_72" data-name="Tracé 72" d="M98.294,122.034l-.183-.371c-1.748-3.529-.223-5.563.286-6.1l.247-.265.148.33a6.162,6.162,0,0,1-.266,6.066Z" transform="translate(-50.448 -88.126)" fill="#b3b3b3"></path><path id="Tracé_73" data-name="Tracé 73" d="M11.821,129.366l-.432-.065a7.114,7.114,0,0,1-5.3-3.9l-.209-.426.467.082a7.129,7.129,0,0,1,5.3,3.905Z" transform="translate(-3.975 -93.048)" fill="#b3b3b3"></path><path id="Tracé_74" data-name="Tracé 74" d="M100.608,129.366l.176-.4a7.131,7.131,0,0,1,5.294-3.905l.467-.082-.21.426a7.114,7.114,0,0,1-5.3,3.9Z" transform="translate(-52.133 -93.048)" fill="#b3b3b3"></path><path id="Tracé_75" data-name="Tracé 75" d="M25.352,134.322l-.323-.221a5.545,5.545,0,0,1-2.26-5.835l.062-.327.291.163c.661.368,2.774,1.88,2.281,5.83Z" transform="translate(-12.495 -94.554)" fill="#b3b3b3"></path><path id="Tracé_76" data-name="Tracé 76" d="M90.282,134.322l-.049-.391c-.494-3.95,1.624-5.462,2.284-5.83l.293-.163.061.33a5.551,5.551,0,0,1-2.265,5.832Z" transform="translate(-46.821 -94.554)" fill="#b3b3b3"></path><path id="Tracé_77" data-name="Tracé 77" d="M19.339,141.757a8.324,8.324,0,0,1-6.293-3.22l-.287-.337.439-.059a8.014,8.014,0,0,1,.99-.061,6.03,6.03,0,0,1,5.668,3.319l.16.324-.361.024C19.571,141.753,19.464,141.757,19.339,141.757Z" transform="translate(-7.47 -99.71)" fill="#b3b3b3"></path><path id="Tracé_78" data-name="Tracé 78" d="M91.728,141.757c-.125,0-.232,0-.316-.008l-.359-.024.158-.324a6.024,6.024,0,0,1,5.664-3.319,7.351,7.351,0,0,1,.993.065l.438.058-.286.335A8.323,8.323,0,0,1,91.728,141.757Z" transform="translate(-47.275 -99.71)" fill="#b3b3b3"></path><path id="Tracé_79" data-name="Tracé 79" d="M35.878,145.7l-.389-.236a7.732,7.732,0,0,1-3.721-6.693v-.349l.325.125c.812.314,3.483,1.722,3.76,6.7Z" transform="translate(-17.134 -99.884)" fill="#b3b3b3"></path><path id="Tracé_80" data-name="Tracé 80" d="M78.434,145.7l.026-.453c.275-4.983,2.949-6.385,3.763-6.7l.322-.125,0,.349a7.725,7.725,0,0,1-3.722,6.693Z" transform="translate(-40.859 -99.884)" fill="#b3b3b3"></path><path id="Tracé_81" data-name="Tracé 81" d="M28.653,153.775a7.411,7.411,0,0,1-5.348-2.454L23,151.006l.429-.088a8.874,8.874,0,0,1,1.788-.183,6.95,6.95,0,0,1,5.428,2.361l.229.27-.335.114A5.854,5.854,0,0,1,28.653,153.775Z" transform="translate(-12.677 -106.144)" fill="#b3b3b3"></path><path id="Tracé_82" data-name="Tracé 82" d="M81.763,153.775a5.911,5.911,0,0,1-1.889-.294l-.337-.114.231-.27a6.966,6.966,0,0,1,5.432-2.361,8.842,8.842,0,0,1,1.785.183l.428.088-.306.315A7.4,7.4,0,0,1,81.763,153.775Z" transform="translate(-41.42 -106.144)" fill="#b3b3b3"></path><path id="Tracé_83" data-name="Tracé 83" d="M40.849,163.769a11.864,11.864,0,0,1-6.127-1.851l-.411-.25.444-.18a7.3,7.3,0,0,1,2.739-.5,10.514,10.514,0,0,1,5.9,1.985l.406.276-.466.152A8.01,8.01,0,0,1,40.849,163.769Z" transform="translate(-18.427 -111.357)" fill="#b3b3b3"></path><path id="Tracé_84" data-name="Tracé 84" d="M67.9,163.769a8,8,0,0,1-2.486-.366l-.467-.152.406-.276a10.521,10.521,0,0,1,5.906-1.985,7.293,7.293,0,0,1,2.738.5l.443.18-.411.25A11.858,11.858,0,0,1,67.9,163.769Z" transform="translate(-34.003 -111.357)" fill="#b3b3b3"></path><path id="Tracé_85" data-name="Tracé 85" d="M49.963,156.685l-.363-.095c-4.352-1.131-5.927-5.446-6.2-6.3l-.13-.406.416.1a8.029,8.029,0,0,1,6.212,6.33Z" transform="translate(-22.982 -105.711)" fill="#b3b3b3"></path><path id="Tracé_86" data-name="Tracé 86" d="M61.693,156.685l.062-.371a7.975,7.975,0,0,1,6.212-6.33l.417-.1-.131.406c-.388,1.2-1.98,5.2-6.2,6.3Z" transform="translate(-32.348 -105.711)" fill="#b3b3b3"></path><path id="Tracé_87" data-name="Tracé 87" d="M57.915,171.973c-3.51,0-8.33-3.812-9.388-4.683-1.073.889-6.016,4.809-9.556,4.682l-.133-.007-.066-.116a1.751,1.751,0,0,1-.256-1.088l.025-.149.147-.041c.786-.227,7.74-2.276,9.666-4.324l.174-.188.176.188c1.923,2.044,8.88,4.1,9.666,4.324l.144.041.026.146a1.731,1.731,0,0,1-.259,1.1l-.069.11-.129.007Z" transform="translate(-20.557 -113.934)" fill="#b3b3b3"></path></g><path id="Tracé_88" data-name="Tracé 88" d="M27.717,43.608h4.369v42.78a30.364,30.364,0,0,1-6.44-14.3,23.109,23.109,0,0,1-.278-4.105c0-6.274,1.21-16.678,2.349-24.379" transform="translate(-13.88 -29.26)" fill="#b3b3b3"></path><path id="Tracé_89" data-name="Tracé 89" d="M68.554,67.987a23.044,23.044,0,0,1-.282,4.1C66.929,79,63.847,87.755,51.881,94.321a36.975,36.975,0,0,1-7.157-5.034V43.608H66.2c.436,2.955,2.355,16.36,2.355,24.379" transform="translate(-23.721 -29.26)" fill="#fff"></path><path id="Union_1" data-name="Union 1" d="M1.071,2.206,5.564,0c-.2,1.9-1.313,12.927-1.313,15.858,0,3.284.87,9.479,1.4,10.727l.035.087.1.007c.081.011,1.953.122,3.141-3.718a4.9,4.9,0,0,1,.71,2.728,6.336,6.336,0,0,1-.719,3.029,12.207,12.207,0,0,1-1.752.842c-.827.365-1.848.816-2.77,1.285A35.206,35.206,0,0,0,.928,32.96c-.354.237-.693.464-.81.518a2.4,2.4,0,0,1-.01-1.526c.065-.287.19-.7.351-1.224A31.177,31.177,0,0,0,1.611,25.94c.364-2.6,1.033-18.841-.54-23.734" transform="translate(27.586 20.939)" fill="#cfcfcf"></path><path id="Tracé_91" data-name="Tracé 91" d="M52.985,65.5a51.85,51.85,0,0,0,.087-5.264c-.3-.353-2.29-2.767-2.084-5.512a4.766,4.766,0,0,1,3.717-4.2c3.66-.719,7.6,2.495,8.359,3.152l3.2-3.8a17.863,17.863,0,0,0-12.779-2.83,8.233,8.233,0,0,0-6.42,5.618,10.136,10.136,0,0,0,.974,7.9A11.987,11.987,0,0,0,52.985,65.5Zm12.17,3.384a23.114,23.114,0,0,0-7.2-5.682,25.872,25.872,0,0,0,.053,5.058c.47.322,4.1,2.932,4.88,5.5a12.723,12.723,0,0,1-.648,9.111,13.731,13.731,0,0,1-4.7,5.111,14.406,14.406,0,0,1-9.826,2.079,12.7,12.7,0,0,0,5.965,3.8c.686-.349,7.47-3.95,10.939-10.4,1.775-3.293,2.636-6.089,2.636-8.548A9.8,9.8,0,0,0,65.155,68.888Z" transform="translate(-24.707 -30.892)" fill="#b3b3b3"></path></g><path id="Tracé_92" data-name="Tracé 92" d="M56.062,1.153c.045-.138.117-.138.162,0l.587,1.805a.389.389,0,0,0,.345.25h1.9c.144,0,.167.069.051.154L57.568,4.477a.39.39,0,0,0-.131.407l.586,1.8c.044.139-.016.182-.133.1L56.356,5.667a.392.392,0,0,0-.426,0L54.395,6.783c-.117.087-.176.043-.131-.1l.586-1.8a.387.387,0,0,0-.132-.407L53.184,3.362c-.117-.085-.1-.154.049-.154h1.9a.387.387,0,0,0,.345-.25Z" transform="translate(-27.984 -1.05)" fill="#b3b3b3"></path></g><g id="Groupe_19" data-name="Groupe 19" transform="translate(6.323 80.638)"><g id="Groupe_16" data-name="Groupe 16"><path id="Tracé_93" data-name="Tracé 93" d="M56.634,171.783a78.676,78.676,0,0,1-15.294,1.633,78.676,78.676,0,0,1-15.294-1.633l-2.056,8.552a88.253,88.253,0,0,0,17.35,1.854,88.237,88.237,0,0,0,17.35-1.854Z" transform="translate(-19.503 -168.489)" fill="#b3b3b3"></path><g id="Groupe_15" data-name="Groupe 15"><path id="Tracé_94" data-name="Tracé 94" d="M21.584,167.523c.866.18,1.739.339,2.614.488l.261-1.14-7.8-1.789L14.863,172.5l4.411,1.011,1.482-6.167Z" transform="translate(-14.863 -165.083)" fill="#b3b3b3"></path><path id="Tracé_95" data-name="Tracé 95" d="M87.886,167.349l1.482,6.165,4.411-1.01-1.791-7.422-7.805,1.789.262,1.14c.875-.149,1.748-.308,2.614-.488Z" transform="translate(-50.106 -165.083)" fill="#b3b3b3"></path></g></g><g id="Groupe_18" data-name="Groupe 18" transform="translate(16.078 6.51)"><g id="Groupe_17" data-name="Groupe 17"><path id="Tracé_96" data-name="Tracé 96" d="M47.707,179.535,47.568,179a1.406,1.406,0,0,0,.518-.273,1.649,1.649,0,0,0,.353-.4l.079,0,.48.3-.367,5.4-.75-.052.309-4.556Z" transform="translate(-47.568 -178.325)" fill="#fff"></path><path id="Tracé_97" data-name="Tracé 97" d="M53,181.37a.633.633,0,0,1-.522-.706l.037-1.125c.022-.648.336-.961.943-.942l.467.017c.606.019.9.354.877,1l-.038,1.132a.624.624,0,0,1-.522.672.665.665,0,0,1,.531.7l-.042,1.243q-.032.965-.941.934l-.578-.019q-.908-.03-.877-.994l.042-1.252Q52.394,181.508,53,181.37Zm.424,2.224.2.007q.341.01.354-.4l.035-1.06c.009-.27-.131-.409-.421-.418s-.448.122-.457.38l-.036,1.068Q53.086,183.582,53.425,183.594Zm-.154-3.893-.031.94c-.01.275.1.415.326.423l.087,0a.366.366,0,0,0,.354-.392l.031-.95c.009-.274-.1-.415-.326-.422l-.087,0C53.4,179.292,53.28,179.427,53.271,179.7Z" transform="translate(-49.991 -178.463)" fill="#fff"></path><path id="Tracé_98" data-name="Tracé 98" d="M60.1,182.969l.005.23c.006.275.122.41.35.4h.11c.2,0,.3-.119.293-.34l-.031-1.376-.468.327-.174,0q-.911.021-.934-.992l-.034-1.59q-.023-1,.887-1.016l.5-.012q.91-.021.932.977l.082,3.672q.022,1.012-.888,1.033l-.451.009q-.909.021-.933-.992l-.006-.316Zm.719-1.458-.041-1.882c0-.228-.131-.337-.38-.331h-.087a.3.3,0,0,0-.333.348l.033,1.472q.009.411.348.4Z" transform="translate(-53.489 -178.466)" fill="#fff"></path><path id="Tracé_99" data-name="Tracé 99" d="M66.587,181.194A.635.635,0,0,1,66,180.54l-.069-1.122q-.059-.973.849-1.027l.466-.03q.908-.055.968.916l.07,1.13a.621.621,0,0,1-.455.717.667.667,0,0,1,.594.647l.076,1.239q.06.963-.848,1.021l-.577.035q-.91.055-.968-.908l-.077-1.249A.68.68,0,0,1,66.587,181.194Zm.111-1.688.058.939c.018.274.139.4.365.389l.087-.005a.365.365,0,0,0,.314-.423l-.058-.947c-.017-.275-.139-.4-.365-.391l-.088.005C66.787,179.087,66.681,179.232,66.7,179.506Zm.524,3.859.2-.011q.34-.021.315-.432l-.066-1.06q-.024-.4-.459-.376c-.294.024-.435.166-.418.423l.065,1.065C66.873,183.25,66.995,183.381,67.221,183.365Z" transform="translate(-56.902 -178.342)" fill="#fff"></path></g></g></g></g></g></g></svg> 